<svg width="82" height="81" viewBox="0 0 82 81" fill="none" xmlns="http://www.w3.org/2000/svg">
<path d="M13.7484 0C6.19495 0 0 6.11014 0 13.5377V66.7253C0 74.1529 6.19495 80.2446 13.7484 80.2446H67.8375C75.391 80.2446 81.5859 74.1529 81.5859 66.7253V13.5377C81.5859 6.11014 75.391 0 67.8375 0H13.7484ZM13.7484 7.30125H67.8375C71.4096 7.30125 74.1797 10.0251 74.1797 13.5377V66.7253C74.1797 70.2379 71.4096 72.9618 67.8375 72.9618H13.7484C10.1763 72.9618 7.40626 70.2379 7.40626 66.7253V13.5377C7.40626 10.0251 10.1763 7.30125 13.7484 7.30125ZM30.5859 18.8616C29.6814 18.9183 28.8294 19.2987 28.1906 19.9309L21.2813 26.7943L19.9687 25.2778C19.3341 24.5389 18.4269 24.0781 17.4467 23.9968C16.4666 23.9156 15.4937 24.2205 14.7422 24.8445C13.9907 25.4686 13.5222 26.3607 13.4395 27.3245C13.3569 28.2883 13.667 29.2449 14.3016 29.9839L18.2344 34.5472C18.567 34.9316 18.977 35.2439 19.4387 35.4644C19.9003 35.6849 20.4034 35.8088 20.9162 35.8283C21.429 35.8478 21.9404 35.7624 22.418 35.5776C22.8955 35.3928 23.3289 35.1126 23.6906 34.7546L33.45 25.0704C34.143 24.3839 34.5303 23.4548 34.5267 22.4875C34.5231 21.5202 34.1289 20.594 33.4308 19.9125C33.0589 19.5497 32.6131 19.2684 32.1226 19.0873C31.6322 18.9061 31.1088 18.8292 30.5859 18.8616ZM41.4047 24.1439C40.9158 24.1429 40.4316 24.2368 39.9798 24.4205C39.5281 24.6041 39.1176 24.8737 38.7722 25.2138C38.4268 25.5539 38.1531 25.9578 37.9669 26.4023C37.7808 26.8468 37.6858 27.3231 37.6875 27.8038C37.6883 28.2829 37.7851 28.7572 37.9723 29.1995C38.1596 29.6419 38.4336 30.0436 38.7788 30.3818C39.124 30.7199 39.5336 30.9879 39.9842 31.1704C40.4347 31.3528 40.9174 31.4462 41.4047 31.4452H64.4531C65.4348 31.4436 66.3758 31.0595 67.0699 30.3769C67.764 29.6943 68.1547 28.769 68.1563 27.8038C68.1579 27.3242 68.0634 26.8491 67.8782 26.4055C67.6929 25.9619 67.4205 25.5586 67.0765 25.2187C66.7326 24.8788 66.3238 24.6088 65.8737 24.4244C65.4235 24.24 64.9408 24.1447 64.4531 24.1439H41.4047ZM31.0266 44.4251C30.5032 44.3977 29.9799 44.4796 29.491 44.6656C29.0022 44.8515 28.559 45.1371 28.1906 45.5038L21.2813 52.3671L19.9687 50.8368C19.3321 50.0999 18.4238 49.6418 17.4438 49.5631C16.4637 49.4845 15.492 49.7917 14.7422 50.4174C13.9907 51.0415 13.5222 51.9336 13.4395 52.8974C13.3569 53.8612 13.667 54.8178 14.3016 55.5568L18.2344 60.1017C18.5653 60.4876 18.974 60.8017 19.4348 61.0243C19.8955 61.2469 20.3982 61.373 20.911 61.3946C21.4239 61.4163 21.9357 61.3331 22.4142 61.1502C22.8926 60.9673 23.3273 60.6888 23.6906 60.3322L33.45 50.6249C34.1416 49.9386 34.528 49.0105 34.5244 48.0443C34.5208 47.0782 34.1275 46.1529 33.4308 45.4716C32.7861 44.8458 31.9312 44.4734 31.0266 44.4251ZM41.4047 49.7213C40.9174 49.7203 40.4347 49.8136 39.9842 49.9961C39.5336 50.1786 39.124 50.4465 38.7788 50.7847C38.4336 51.1229 38.1596 51.5246 37.9723 51.9669C37.7851 52.4093 37.6883 52.8836 37.6875 53.3627C37.6883 53.8419 37.7851 54.3162 37.9723 54.7585C38.1596 55.2009 38.4336 55.6026 38.7788 55.9408C39.124 56.2789 39.5336 56.5469 39.9842 56.7293C40.4347 56.9118 40.9174 57.0052 41.4047 57.0041H64.4531C65.4348 57.0026 66.3758 56.6184 67.0699 55.9359C67.764 55.2533 68.1547 54.328 68.1563 53.3627C68.1547 52.3974 67.764 51.4721 67.0699 50.7896C66.3758 50.107 65.4348 49.7229 64.4531 49.7213H41.4047Z" fill="#7B7CBE"/>
</svg>
