<svg width="96" height="96" viewBox="0 0 96 96" fill="none" xmlns="http://www.w3.org/2000/svg">
<path d="M45.0496 61.7645L72.3131 34.7095C73.7329 33.3005 73.7329 31.0243 72.3131 29.6154C70.8954 28.2086 68.6084 28.2086 67.1907 29.6154L41.6289 54.9818L31.6921 45.1209C30.2744 43.7141 27.9874 43.7141 26.5697 45.1209C25.1499 46.5299 25.1499 48.8061 26.5697 50.215L39.0697 62.6194C39.7773 63.3215 40.7067 63.6716 41.6328 63.6716C42.559 63.6716 43.4884 63.3215 44.1959 62.6194L45.0573 61.7645H45.0496ZM0.5 47.666C0.5 73.5961 21.7545 94.6825 47.875 94.6825C73.9955 94.6825 95.25 73.5961 95.25 47.666C95.25 21.7359 73.9955 0.649414 47.875 0.649414C21.7545 0.649414 0.5 21.7359 0.5 47.666ZM7.75 47.666C7.75 25.719 25.7495 7.85162 47.875 7.85162C70.0005 7.85162 88 25.719 88 47.666C88 69.613 70.0005 87.4803 47.875 87.4803C25.7495 87.4803 7.75 69.613 7.75 47.666Z" fill="#7B7CBE" stroke="#7B7CBE"/>
</svg>
