<svg width="95" height="95" viewBox="0 0 95 95" fill="none" xmlns="http://www.w3.org/2000/svg">
<path d="M33.25 28.5C33.25 25.8766 31.1234 23.75 28.5 23.75C25.8767 23.75 23.75 25.8766 23.75 28.5V66.5C23.75 69.1234 25.8767 71.25 28.5 71.25C31.1234 71.25 33.25 69.1234 33.25 66.5V52.25H61.75V66.5C61.75 69.1234 63.8766 71.25 66.5 71.25C69.1234 71.25 71.25 69.1234 71.25 66.5V28.5C71.25 25.8766 69.1234 23.75 66.5 23.75C63.8766 23.75 61.75 25.8766 61.75 28.5V42.75H33.25V28.5Z" fill="#7B7CBE"/>
<path fill-rule="evenodd" clip-rule="evenodd" d="M47.5 95C73.7333 95 95 73.7333 95 47.5C95 21.2665 73.7333 0 47.5 0C21.2665 0 0 21.2665 0 47.5C0 73.7333 21.2665 95 47.5 95ZM85.5 47.5C85.5 68.4869 68.4869 85.5 47.5 85.5C26.5132 85.5 9.5 68.4869 9.5 47.5C9.5 26.5132 26.5132 9.5 47.5 9.5C68.4869 9.5 85.5 26.5132 85.5 47.5Z" fill="#7B7CBE"/>
</svg>
