<svg width="82" height="70" viewBox="0 0 82 70" fill="none" xmlns="http://www.w3.org/2000/svg">
<path d="M40.0905 5H78.6165C79.0772 5 79.519 4.78929 79.8448 4.41421C80.1705 4.03914 80.3535 3.53043 80.3535 3C80.3535 2.46957 80.1705 1.96086 79.8448 1.58579C79.519 1.21071 79.0772 1 78.6165 1H40.0905C39.6298 1 39.188 1.21071 38.8623 1.58579C38.5365 1.96086 38.3535 2.46957 38.3535 3C38.3535 3.53043 38.5365 4.03914 38.8623 4.41421C39.188 4.78929 39.6298 5 40.0905 5Z" fill="#7B7CBE" stroke="#7B7CBE" stroke-width="2"/>
<path d="M78.6165 14H40.0905C39.6298 14 39.188 14.2107 38.8623 14.5858C38.5365 14.9609 38.3535 15.4696 38.3535 16C38.3535 16.5304 38.5365 17.0391 38.8623 17.4142C39.188 17.7893 39.6298 18 40.0905 18H78.6165C79.0772 18 79.519 17.7893 79.8448 17.4142C80.1705 17.0391 80.3535 16.5304 80.3535 16C80.3535 15.4696 80.1705 14.9609 79.8448 14.5858C79.519 14.2107 79.0772 14 78.6165 14Z" fill="#7B7CBE" stroke="#7B7CBE" stroke-width="2"/>
<path d="M78.6165 26H40.0905C39.6298 26 39.188 26.2107 38.8623 26.5858C38.5365 26.9609 38.3535 27.4696 38.3535 28C38.3535 28.5304 38.5365 29.0391 38.8623 29.4142C39.188 29.7893 39.6298 30 40.0905 30H78.6165C79.0772 30 79.519 29.7893 79.8448 29.4142C80.1705 29.0391 80.3535 28.5304 80.3535 28C80.3535 27.4696 80.1705 26.9609 79.8448 26.5858C79.519 26.2107 79.0772 26 78.6165 26Z" fill="#7B7CBE" stroke="#7B7CBE" stroke-width="2"/>
<path d="M78.5488 38.5901H3.13457C2.56844 38.5901 2.02551 38.815 1.6252 39.2153C1.22489 39.6156 1 40.1585 1 40.7247C1 41.2908 1.22489 41.8337 1.6252 42.234C2.02551 42.6343 2.56844 42.8592 3.13457 42.8592H78.5488C79.1149 42.8592 79.6578 42.6343 80.0581 42.234C80.4585 41.8337 80.6833 41.2908 80.6833 40.7247C80.6833 40.1585 80.4585 39.6156 80.0581 39.2153C79.6578 38.815 79.1149 38.5901 78.5488 38.5901Z" fill="#7B7CBE" stroke="#7B7CBE" stroke-width="2"/>
<path d="M78.5488 51.1409H3.13457C2.56844 51.1409 2.02551 51.3658 1.6252 51.7661C1.22489 52.1664 1 52.7093 1 53.2754C1 53.8416 1.22489 54.3845 1.6252 54.7848C2.02551 55.1851 2.56844 55.41 3.13457 55.41H78.5488C79.1149 55.41 79.6578 55.1851 80.0581 54.7848C80.4585 54.3845 80.6833 53.8416 80.6833 53.2754C80.6833 52.7093 80.4585 52.1664 80.0581 51.7661C79.6578 51.3658 79.1149 51.1409 78.5488 51.1409Z" fill="#7B7CBE" stroke="#7B7CBE" stroke-width="2"/>
<path d="M78.5488 64H3.13457C2.56844 64 2.02551 64.2249 1.6252 64.6252C1.22489 65.0255 1 65.5684 1 66.1346C1 66.7007 1.22489 67.2436 1.6252 67.6439C2.02551 68.0442 2.56844 68.2691 3.13457 68.2691H78.5488C79.1149 68.2691 79.6578 68.0442 80.0581 67.6439C80.4585 67.2436 80.6833 66.7007 80.6833 66.1346C80.6833 65.5684 80.4585 65.0255 80.0581 64.6252C79.6578 64.2249 79.1149 64 78.5488 64Z" fill="#7B7CBE" stroke="#7B7CBE" stroke-width="2"/>
<path d="M17.9522 24.8643C17.7521 25.0627 17.5933 25.2988 17.485 25.559C17.3766 25.8191 17.3208 26.0981 17.3208 26.3799C17.3208 26.6616 17.3766 26.9406 17.485 27.2008C17.5933 27.4609 17.7521 27.697 17.9522 27.8954C18.1517 28.0932 18.3882 28.2498 18.6483 28.356C18.9083 28.4622 19.1868 28.516 19.4677 28.5144C19.7487 28.516 20.0271 28.4622 20.2872 28.356C20.5473 28.2498 20.7838 28.0932 20.9833 27.8954L32.2965 16.5822C32.485 16.3747 32.6366 16.1365 32.7447 15.8778C32.9582 15.3581 32.9582 14.7752 32.7447 14.2555C32.6469 13.9916 32.4942 13.7515 32.2965 13.5511L20.9833 2.17388C20.7848 1.97381 20.5488 1.81501 20.2886 1.70664C20.0285 1.59827 19.7495 1.54248 19.4677 1.54248C19.186 1.54248 18.907 1.59827 18.6468 1.70664C18.3867 1.81501 18.1506 1.97381 17.9522 2.17388C17.5546 2.57382 17.3315 3.11483 17.3315 3.67875C17.3315 4.24267 17.5546 4.78368 17.9522 5.18362L25.6366 12.8681H3.4882C2.92208 12.8681 2.37915 13.0929 1.97884 13.4933C1.57853 13.8936 1.35364 14.4365 1.35364 15.0026C1.35364 15.5687 1.57853 16.1117 1.97884 16.512C2.37915 16.9123 2.92208 17.1372 3.4882 17.1372H25.6366L17.9522 24.8643Z" fill="#7B7CBE" stroke="#7B7CBE" stroke-width="2"/>
</svg>
