<svg width="142" height="93" viewBox="0 0 142 93" fill="none" xmlns="http://www.w3.org/2000/svg">
<path d="M48.1784 85.8897L13.2392 67.1301C12.1863 66.5648 11.615 65.3834 11.8198 64.2065L18.7706 25.3446C18.9853 24.1729 19.9246 23.2654 21.1106 23.115L60.3533 17.8593C61.5445 17.6992 62.6949 18.3169 63.2195 19.3982L80.5184 55.0123C81.043 56.0936 80.8055 57.378 79.9526 58.1945L51.3995 85.4577C50.5414 86.2839 49.241 86.4603 48.1784 85.8897ZM17.6073 63.2282L49.0077 80.0877L74.663 55.5796L59.1252 23.5851L23.8626 28.3038L17.6073 63.2282Z" fill="#7B7CBE"/>
<path d="M128.443 67.0317L92.6667 84.14C91.5886 84.6556 90.2979 84.4186 89.4693 83.5581L62.2198 54.992C61.4012 54.1266 61.224 52.8325 61.8032 51.7868L80.7456 17.019C81.3201 15.9633 82.498 15.4 83.6804 15.6155L122.635 22.6972C123.817 22.9127 124.713 23.863 124.868 25.0335L129.998 64.1775C130.157 65.358 129.532 66.5113 128.443 67.0317ZM92.099 78.3106L124.252 62.935L119.634 27.7567L84.6399 21.3924L67.6156 52.6316L92.099 78.3106Z" fill="#7B7CBE"/>
</svg>
