<svg width="96" height="91" viewBox="0 0 96 91" fill="none" xmlns="http://www.w3.org/2000/svg">
<path d="M83.1214 0.427155H82.5254H82.2273H25.807C22.4273 0.432782 19.1852 1.76611 16.7794 4.13976C14.3736 6.5134 12.9967 9.7373 12.9456 13.1166C12.9456 13.1166 12.9456 13.1739 12.9456 13.2083V64.3787H12.212C11.9691 64.3798 11.727 64.4067 11.4898 64.4589C8.33356 64.8 5.41466 66.2953 3.29387 68.6576C1.17308 71.0199 0 74.0826 0 77.2572C0 80.4318 1.17308 83.4945 3.29387 85.8568C5.41466 88.2191 8.33356 89.7144 11.4898 90.0555C11.727 90.1077 11.9691 90.1346 12.212 90.1358H64.2535C67.6657 90.1297 70.9365 88.7715 73.3493 86.3587C75.7621 83.9459 77.1203 80.6752 77.1264 77.2629V26.1843H83.1214C86.537 26.1843 89.8128 24.8274 92.228 22.4122C94.6432 19.997 96 16.7213 96 13.3057C96 9.89011 94.6432 6.6144 92.228 4.1992C89.8128 1.784 86.537 0.427155 83.1214 0.427155ZM6.87027 77.2285C6.8733 75.6395 7.5059 74.1164 8.62954 72.9927C9.75318 71.8691 11.2763 71.2365 12.8654 71.2335H52.8594C51.8788 73.0817 51.3661 75.142 51.3661 77.2343C51.3661 79.3265 51.8788 81.3869 52.8594 83.2351H12.8768C11.2897 83.2351 9.76713 82.607 8.64166 81.488C7.5162 80.369 6.87936 78.85 6.87027 77.2629V77.2285ZM70.2371 77.2285C70.2371 78.4143 69.8855 79.5734 69.2268 80.5592C68.568 81.5451 67.6317 82.3135 66.5363 82.7673C65.4408 83.221 64.2354 83.3398 63.0725 83.1084C61.9095 82.8771 60.8413 82.3061 60.0029 81.4677C59.1645 80.6293 58.5935 79.5611 58.3622 78.3981C58.1308 77.2352 58.2496 76.0298 58.7033 74.9343C59.1571 73.8389 59.9255 72.9026 60.9114 72.2438C61.8972 71.5851 63.0563 71.2335 64.2421 71.2335C65.1541 71.2335 66.0288 70.8711 66.6737 70.2262C67.3186 69.5813 67.6809 68.7066 67.6809 67.7946C67.6809 66.8825 67.3186 66.0079 66.6737 65.3629C66.0288 64.718 65.1541 64.3557 64.2421 64.3557H19.8119V13.3C19.8149 11.7109 20.4475 10.1878 21.5711 9.06416C22.6948 7.94052 24.2179 7.30792 25.807 7.30489H71.7388C70.7924 9.0976 70.2855 11.0896 70.2601 13.1166C70.2601 13.1166 70.2601 13.1739 70.2601 13.2083L70.2371 77.2285ZM83.1214 19.3065H77.1264V13.3C77.1264 12.1143 77.478 10.9552 78.1367 9.96929C78.7954 8.9834 79.7318 8.215 80.8272 7.76124C81.9227 7.30749 83.1281 7.18876 84.291 7.42009C85.454 7.65141 86.5222 8.22238 87.3606 9.06081C88.199 9.89924 88.77 10.9675 89.0013 12.1304C89.2327 13.2933 89.1139 14.4987 88.6602 15.5942C88.2064 16.6897 87.438 17.626 86.4521 18.2847C85.4662 18.9435 84.3072 19.2951 83.1214 19.2951V19.3065Z" fill="#7B7CBE"/>
<path d="M33.4757 48.342H24.3054V55.2198H33.4757V48.342Z" fill="#7B7CBE"/>
<path d="M64.4256 48.342H39.2073V55.2198H64.4256V48.342Z" fill="#7B7CBE"/>
<path d="M33.4757 34.5865H24.3054V41.4643H33.4757V34.5865Z" fill="#7B7CBE"/>
<path d="M64.4256 34.5865H39.2073V41.4643H64.4256V34.5865Z" fill="#7B7CBE"/>
<path d="M33.4757 20.8311H24.3054V27.7088H33.4757V20.8311Z" fill="#7B7CBE"/>
<path d="M64.4256 20.8311H39.2073V27.7088H64.4256V20.8311Z" fill="#7B7CBE"/>
</svg>
