<svg width="93" height="95" viewBox="0 0 93 95" fill="none" xmlns="http://www.w3.org/2000/svg">
<path fill-rule="evenodd" clip-rule="evenodd" d="M14.8731 0.520065C6.70091 0.520065 0 7.24147 0 15.4713V79.1985C0 87.4284 6.70091 94.1497 14.8731 94.1497H78.1336C86.3058 94.1497 93 87.4284 93 79.1985V15.4713C93 7.24147 86.3058 0.520065 78.1336 0.520065H14.8731ZM14.8731 7.38557H78.1336C82.6469 7.38557 86.1826 10.9262 86.1826 15.4713V79.1985C86.1826 83.7436 82.6469 87.2842 78.1336 87.2842H14.8731C10.3598 87.2842 6.81738 83.7436 6.81738 79.1985V15.4713C6.81738 10.9262 10.3598 7.38557 14.8731 7.38557ZM46.5033 16.1016C37.7748 16.1016 30.6516 23.3502 30.6516 32.1658C30.6516 36.7708 32.5903 40.9449 35.6914 43.8787C27.5629 47.9245 21.9701 56.3874 21.9701 66.1513V75.1221C21.9666 76.0325 22.3224 76.907 22.9591 77.5533C23.5959 78.1995 24.4615 78.5646 25.3655 78.5683H67.6346C68.0827 78.5673 68.5264 78.4774 68.94 78.3037C69.3536 78.1299 69.7292 77.8757 70.0452 77.5556C70.3612 77.2355 70.6114 76.8559 70.7815 76.4383C70.9516 76.0207 71.0383 75.5735 71.0366 75.1221V66.1513C71.0366 56.3874 65.4371 47.9245 57.3086 43.8787C60.4098 40.9449 62.3551 36.7708 62.3551 32.1658C62.3551 23.3502 55.2318 16.1016 46.5033 16.1016ZM46.5033 22.9738C51.5184 22.9738 55.531 27.0316 55.531 32.1658C55.531 37.2999 51.5184 41.3443 46.5033 41.3443C41.4882 41.3443 37.469 37.2999 37.469 32.1658C37.469 27.0316 41.4882 22.9738 46.5033 22.9738ZM46.5033 48.2098C56.3703 48.2099 64.2392 56.1371 64.2392 66.1513V71.7027H28.7875V66.1513C28.7875 56.1371 36.6363 48.2099 46.5033 48.2098Z" fill="#7B7CBE"/>
</svg>
