<svg width="94" height="94" viewBox="0 0 94 94" fill="none" xmlns="http://www.w3.org/2000/svg">
<path d="M46.8748 5.00679e-05C72.7188 5.00679e-05 93.7498 21.031 93.7498 46.875C93.7498 47.9688 93.1873 48.9688 92.281 49.5312C91.3747 50.0937 90.2185 50.1562 89.2498 49.6875C89.1873 49.6562 83.531 46.875 78.1248 46.875C74.6873 46.875 69.9686 52.25 68.2186 54.875C67.6248 55.75 66.6248 56.25 65.6248 56.25C65.031 56.25 64.4373 56.0938 63.906 55.7188C63.8435 55.6562 57.2498 51.3125 50 50.25V81.25C50 88.1562 44.4062 93.75 37.5 93.75C30.5938 93.75 25 88.1562 25 81.25C25 79.5312 26.4062 78.125 28.125 78.125C29.8438 78.125 31.25 79.5312 31.25 81.25C31.25 84.6875 34.0625 87.5 37.5 87.5C40.9375 87.5 43.75 84.6875 43.75 81.25V50.25C36.5625 51.3438 29.938 55.6875 29.844 55.7188C28.4065 56.6562 26.469 56.2812 25.5002 54.8438C23.7813 52.25 19.0627 46.875 15.6252 46.875C10.219 46.875 4.56316 49.6562 4.53116 49.6875C3.56241 50.1562 2.40615 50.125 1.49995 49.5312C0.562454 48.9687 -4.57764e-05 47.9687 -4.57764e-05 46.875C-4.57764e-05 21.031 21.0308 5.00679e-05 46.8748 5.00679e-05ZM46.8748 43.75C52.7186 43.75 58.4368 45.875 62.3438 47.75C61.0626 23.031 50.9998 11.094 46.8748 7.18805C42.7498 11.0942 32.6868 23.032 31.4058 47.75C35.312 45.875 41.0308 43.75 46.8748 43.75ZM78.1248 40.625C81.4373 40.625 84.6873 41.375 87.2186 42.1875C85.2186 24.8125 72.1876 10.7495 55.3126 7.15655C60.5001 13.719 67.0006 25.7186 68.4376 45.1566C71.0938 42.7816 74.4998 40.625 78.1248 40.625ZM15.6248 40.625C19.2498 40.625 22.656 42.7812 25.3123 45.1875C26.7498 25.7185 33.2498 13.7495 38.4373 7.15655C21.5623 10.7503 8.53126 24.7815 6.53126 42.1875C9.06245 41.375 12.3122 40.625 15.6248 40.625Z" fill="#7B7CBE"/>
</svg>
