<svg width="110" height="72" viewBox="0 0 110 72" fill="none" xmlns="http://www.w3.org/2000/svg">
<path d="M34.9238 71.4998C43.1246 71.4998 49.7727 64.8518 49.7727 56.6511C49.7727 48.4503 43.1246 41.8022 34.9238 41.8022C26.7231 41.8022 20.075 48.4503 20.075 56.6511C20.075 64.8518 26.7231 71.4998 34.9238 71.4998Z" fill="#7B7CBE"/>
<path d="M75.0762 71.4998C83.2769 71.4998 89.925 64.8518 89.925 56.6511C89.925 48.4503 83.2769 41.8022 75.0762 41.8022C66.8754 41.8022 60.2274 48.4503 60.2274 56.6511C60.2274 64.8518 66.8754 71.4998 75.0762 71.4998Z" fill="#7B7CBE"/>
<path d="M14.8488 29.6976C23.0496 29.6976 29.6976 23.0496 29.6976 14.8488C29.6976 6.64804 23.0496 0 14.8488 0C6.64804 0 0 6.64804 0 14.8488C0 23.0496 6.64804 29.6976 14.8488 29.6976Z" fill="#7B7CBE"/>
<path d="M55.0011 29.6976C63.2019 29.6976 69.8499 23.0496 69.8499 14.8488C69.8499 6.64804 63.2019 0 55.0011 0C46.8003 0 40.1523 6.64804 40.1523 14.8488C40.1523 23.0496 46.8003 29.6976 55.0011 29.6976Z" fill="#7B7CBE"/>
<path d="M95.1512 29.6976C103.352 29.6976 110 23.0496 110 14.8488C110 6.64804 103.352 0 95.1512 0C86.9504 0 80.3024 6.64804 80.3024 14.8488C80.3024 23.0496 86.9504 29.6976 95.1512 29.6976Z" fill="#7B7CBE"/>
</svg>
