<svg width="86" height="113" viewBox="0 0 86 113" fill="none" xmlns="http://www.w3.org/2000/svg">
<path d="M53.4955 49.3637L39.9101 63.93L31.8667 56.7327C31.3837 56.3036 30.8208 55.9738 30.2103 55.7622C29.5998 55.5506 28.9537 55.4614 28.3087 55.4995C27.6637 55.5376 27.0325 55.7025 26.4512 55.9845C25.8699 56.2666 25.3499 56.6604 24.9207 57.1434C24.4916 57.6265 24.1619 58.1893 23.9503 58.7998C23.7387 59.4103 23.6494 60.0565 23.6876 60.7015C23.7257 61.3465 23.8905 61.9776 24.1726 62.5589C24.4546 63.1402 24.8484 63.6603 25.3315 64.0894L36.9551 74.4869C37.9108 75.3421 39.1635 75.7889 40.4446 75.7316C41.7258 75.6743 42.9336 75.1174 43.8091 74.1804L60.6683 56.0461C61.1078 55.5751 61.4503 55.0221 61.6762 54.4188C61.9021 53.8155 62.0069 53.1735 61.9847 52.5297C61.9625 51.8858 61.8137 51.2527 61.5468 50.6663C61.2799 50.08 60.9001 49.5519 60.4292 49.1124C59.9582 48.6728 59.4052 48.3303 58.8019 48.1044C58.1986 47.8785 57.5566 47.7737 56.9128 47.7959C56.2689 47.8181 55.6358 47.9669 55.0494 48.2338C54.4631 48.5007 53.935 48.8805 53.4955 49.3514V49.3637Z" fill="#B3C9F5"/>
<path d="M71.2866 13.3647H68.1845V12.3225C68.1845 11.0218 67.6678 9.77428 66.748 8.85451C65.8282 7.93474 64.5808 7.41802 63.28 7.41802H58.7188C57.5025 5.17733 55.7047 3.30587 53.5147 2.00048C51.3246 0.695094 48.8233 0.00403621 46.2737 0H39.7263C37.1776 0.00743636 34.6779 0.701378 32.4901 2.00888C30.3023 3.31637 28.5072 5.18913 27.2934 7.43028H22.72C21.4192 7.43028 20.1718 7.947 19.252 8.86677C18.3322 9.78654 17.8155 11.034 17.8155 12.3348V13.377H14.7134C10.8112 13.377 7.06877 14.9271 4.30946 17.6864C1.55016 20.4457 0 24.1881 0 28.0904V97.5746C0 101.477 1.55016 105.219 4.30946 107.979C7.06877 110.738 10.8112 112.288 14.7134 112.288H71.2866C75.1888 112.288 78.9312 110.738 81.6905 107.979C84.4498 105.219 86 101.477 86 97.5746V28.0781C86 24.1759 84.4498 20.4335 81.6905 17.6742C78.9312 14.9149 75.1888 13.3647 71.2866 13.3647ZM27.6245 17.2392H30.6652C31.8101 17.2384 32.9186 16.8371 33.7987 16.1048C34.6788 15.3726 35.2749 14.3555 35.4839 13.2298C35.6841 12.2518 36.2154 11.3727 36.9881 10.7406C37.7609 10.1085 38.7279 9.76219 39.7263 9.75991H46.2737C47.2721 9.76219 48.2391 10.1085 49.0119 10.7406C49.7846 11.3727 50.3159 12.2518 50.5161 13.2298C50.7326 14.3487 51.3321 15.3573 52.2114 16.0822C53.0908 16.8072 54.1951 17.2033 55.3348 17.2025H58.3755V19.7896H27.6245V17.2392ZM76.191 97.5746C76.191 98.8753 75.6743 100.123 74.7546 101.043C73.8348 101.962 72.5873 102.479 71.2866 102.479H14.7134C13.4127 102.479 12.1652 101.962 11.2454 101.043C10.3257 100.123 9.80895 98.8753 9.80895 97.5746V28.0781C9.80895 26.7774 10.3257 25.5299 11.2454 24.6101C12.1652 23.6904 13.4127 23.1737 14.7134 23.1737H17.8278V24.7308C17.8278 26.0316 18.3445 27.279 19.2643 28.1988C20.184 29.1186 21.4315 29.6353 22.7323 29.6353H63.28C64.5808 29.6353 65.8282 29.1186 66.748 28.1988C67.6678 27.279 68.1845 26.0316 68.1845 24.7308V23.1737H71.2988C72.5996 23.1737 73.847 23.6904 74.7668 24.6101C75.6866 25.5299 76.2033 26.7774 76.2033 28.0781L76.191 97.5746Z" fill="#B3C9F5"/>
</svg>
