<?xml version="1.0" encoding="utf-8"?>
<!-- Generator: Adobe Illustrator 19.0.0, SVG Export Plug-In . SVG Version: 6.00 Build 0)  -->
<svg version="1.1" id="Layer_1" xmlns="http://www.w3.org/2000/svg" xmlns:xlink="http://www.w3.org/1999/xlink" x="0px" y="0px"
	 viewBox="0 0 1096 780" style="enable-background:new 0 0 1096 780;" xml:space="preserve">
<style type="text/css">
	.st0{fill:#231F20;}
	.st1{fill:#C4C100;}
	.st2{fill:#94562F;}
	.st3{fill:#AAC400;}
	.st4{fill:#FFFFFF;}
	.st5{fill:#FF64A3;}
	.st6{opacity:0.5;}
	.st7{fill:#FFF645;}
	.st8{fill:#FF0040;}
	.st9{fill:#E00038;}
	.st10{fill:#FF769D;}
	.st11{fill:#FFAE00;}
	.st12{fill:#FF8800;}
	.st13{opacity:0.9;}
	.st14{fill:#FFD500;}
	.st15{fill:#FFDB00;}
	.st16{opacity:0.8;}
	.st17{fill:#FFF0A4;}
</style>
<g>
	<g>
		<path class="st0" d="M429,389.7c-32,41.6-90.2,52.8-140,46.3c-46.7-6.1-103.5-31.1-111.4-83.8c-3.8-25.1,4-49,16-70.8
			c14.3-25.9,31.1-49.6,40.5-77.9c8.5-25.3,15.1-53.9,33-74.6c15-17.3,28.6-23.5,58.1-19.8c15.7,0.3,30.8,3.9,42.6,15.7
			c23.1,23.1,23.1,57.8,31.4,87.4c9.3,33.3,37.8,56.9,45.8,90.6C452.1,332.2,447.8,365.3,429,389.7z"/>
		<path class="st1" d="M423.5,382.8c-32.6,49.6-109.7,53.3-161.1,39.3c-27.8-7.6-53.8-23.2-68.4-48.7c-15.2-26.3-8.9-56,3.8-81.8
			c8.6-17.3,19.8-33.2,29.2-50.1c9.2-16.6,15.1-34.6,20.9-52.6c6.4-19.9,13.4-40.3,27.3-56.3c6.2-7.1,13.7-11.6,21.8-14.1
			c22.6-4.1,50.3-4.9,69,15.9c20.1,22.3,19.1,59.3,27.5,86.7c8.4,27.4,30.5,47.5,40.7,74.1C445.4,324.3,440.4,357.1,423.5,382.8z"/>
		<path class="st0" d="M343.6,127.1c-5.5,8.2-18.6,8.9-27.6,8.1c-5.9-0.5-14.1-4.9-14.7-11.3c-0.1-0.8,0.9-1.3,1.6-0.9
			c3.8,2,6.7,4.3,10,5.7c1.3-13.9,1.3-27.7,3.2-41.6c1.5-10.8-0.3-17,12.1-15.9c1.4,0.1,3,2,3,3.4c0.2,20.1-3,36.4-3.8,54.7
			c4.9-1.3,9.2-3.5,14.4-4.5C343.1,124.6,344.5,125.9,343.6,127.1z"/>
		<path class="st2" d="M321.2,130.3c-1.7,0.1-3.1-0.1-4.5-0.4c0,0,0.1,0,0.1-0.1c0.7-8.4,3.7-41,4.7-50.8c0.1-1,4.9-2.1,5,0.6
			c0.3,5.6-0.9,11.4-1.3,16.9c-0.8,11.2-1.9,22.5-2.2,33.7C322.4,130.2,321.8,130.3,321.2,130.3z"/>
		<path class="st0" d="M372.3,102.1c-8.4,1.4-50.6-3-44.6-18.5c2.3-15,16.4-28.7,30.4-33.6c18.7-6.6,38.5-4.3,55.4,5.6
			c0.7,0.4,2.9,3.1,2.9,3.7C422,82.2,393.6,98.7,372.3,102.1z"/>
		<path class="st3" d="M365.9,52.5c14.4-3.6,30.5,1.4,43.7,5.6c-2.1,0.2-7.5,0.8-9.5,1.2c-7,1.3-14.1,2.5-21.2,4
			c0.5-0.6,0.9-1.4,1.2-2c0.8-1.4,2.7-3.6,2.2-5.2c-0.1-0.5-0.5-0.7-1-0.7c-1.8-0.2-2.9,2.1-3.5,3.5c-0.7,1.4-1.9,3.5-1.9,5.1
			c-1.9,0.4-3.8,0.8-5.7,1.2c-1.2,0.3-2.4,0.6-3.5,0.9c0.3-0.6,0.6-1.1,0.9-1.6c1.2-1.9,2.7-3.6,3.2-5.8c0.2-0.8-0.6-1.4-1.3-1
			c-2.1,1.1-3.3,3.4-4.5,5.3c-0.7,1.2-1.7,2.8-2.1,4.3c-2.3,0.8-4.5,1.6-6.6,2.5c0.6-1.2,1.2-2.4,1.2-3.8c0-0.7-0.8-1.3-1.4-0.8
			c-1.2,0.9-1.8,2.2-2.4,3.6c-0.3,0.8-0.8,1.7-1,2.6c-1.9,0.9-3.8,1.8-5.6,2.8c0-0.1,0.1-0.3,0.1-0.4c1-2.7,2.8-5.7,2.8-8.6
			c0-0.9-1-1.2-1.6-0.7c-2.1,1.8-3.1,5-4,7.5c-0.6,1.4-1.2,3-1.6,4.5c-4,2.2-7.9,4.6-11.9,7C335.8,67.6,350.1,56.5,365.9,52.5z
			 M379.8,94.6c-8.3,2.5-17.3,2.8-25.9,1.5c-4.8-0.7-17.7-4.1-22.7-9.7c3.2-1.2,6.1-3.3,9.1-4.8c1-0.5,2.1-1,3.1-1.5
			c1.3,1.4,3,2.6,4.3,3.9c1.9,1.9,3.6,4.5,6.2,5.4c0.8,0.3,1.5-0.5,1.3-1.3c-0.7-2.6-3.3-4.7-5.2-6.5c-0.9-0.9-2.1-2.1-3.3-3.1
			c2.5-1.1,5.1-2.2,7.7-3.2c2.4,2.1,5.1,3.9,7.5,6.1c2.8,2.5,5.4,6.9,9.3,7.5c0.8,0.1,1.4-0.5,1.3-1.3c-0.7-4.1-5.6-7.4-8.6-10
			c-1.4-1.2-3.2-2.8-5.2-3.9c2.9-1.1,5.8-2.1,8.7-3c0.5,0.5,1,1,1.4,1.5c0.8,0.9,1.6,1.7,2.4,2.5c1.4,1.3,3.2,3.7,5.2,4.1
			c0.7,0.1,1.4-0.3,1.4-1.1c0.2-2.3-2.5-4.2-4.1-5.5c-0.8-0.7-1.7-1.7-2.6-2.6c2.7-0.7,5.4-1.2,8.1-1.7c0.6,0.9,1.5,1.7,2.3,2.5
			c1.2,1.2,2.3,2.6,3.5,3.8c2.1,2.2,4,5.1,6.9,6.2c0.6,0.2,1.3-0.4,1.2-0.9c-0.2-3.6-3.6-6.3-6-8.7c-1.1-1.1-2.3-2.6-3.7-3.7
			c2.2-0.4,4.4-0.8,6.5-1.2c1.4-0.3,2.8-0.6,4.2-0.9c0.4,0.5,1,0.9,1.5,1.3c1.1,0.9,2.1,1.9,3,2.9c1.1,1.2,2.5,5.2,4.6,3.3
			c0.4-0.4,0.6-1.1,0.4-1.6c-0.6-2.4-2.2-4.2-4-5.8c-0.4-0.3-0.8-0.7-1.3-1.1c4.7-0.9,9.5-1.6,14.2-1.6
			C412.6,79.9,395.3,89.9,379.8,94.6z"/>
		<path class="st0" d="M385.3,85.2c-0.2-1.1-1.2-1.8-1.9-2.4c-0.8-0.7-1.5-1-2.6-0.8c-0.4,0.1-0.7,0.5-0.5,0.9
			c0.3,0.7,0.6,1.2,1.2,1.8c0.8,0.8,1.3,1.7,2.4,2C384.8,87,385.4,86,385.3,85.2z"/>
	</g>
	<g>
		<path d="M270.7,308c-2.4-2.9-13.7-6-15.4,9.3c-0.6,5.2,1.9,10.4,7.1,12.3c5.2,1.9,9.2-2.7,10.5-7.2
			C274.1,317.7,273.9,311.9,270.7,308z"/>
		<path class="st4" d="M268.8,311.9c-1-1.5-2.9-2.1-4.3-0.7c-1.6,1.6-1.9,8.7,3,7.7C269.5,318.5,269.9,313.7,268.8,311.9z"/>
		<path d="M375,308.7c-2.4-2.9-13.7-6-15.4,9.3c-0.6,5.2,1.9,10.4,7.1,12.3c5.2,1.9,9.2-2.7,10.5-7.2
			C378.4,318.4,378.2,312.6,375,308.7z"/>
		<path class="st4" d="M373.1,312.6c-1-1.5-2.9-2.1-4.3-0.7c-1.6,1.6-1.9,8.7,3,7.7C373.8,319.2,374.3,314.4,373.1,312.6z"/>
	</g>
	<path d="M324.4,322.6c-2.2,4.8-1.9,9.9-8.6,9.4c-7.5-0.5-7.6-8.2-9.1-9.9c-0.5-0.6-1.5-0.4-1.9,0.2c-1.7,2.6-0.3,6.5,1,9
		c1.7,3.1,4.9,4.5,8.3,5c3,0.5,6.6,0.1,9-1.9c3-2.4,4.3-5.7,4.5-10.3C327.9,320.8,325.3,320.6,324.4,322.6z"/>
	<path class="st5" d="M250.6,328.4c-9.6-1-11.6,4.5-11.9,6.4c-1,5.8,3.8,8.5,7.9,9.4c4.5,1,10.8-0.3,11.9-5
		C259.9,333,255.3,328.9,250.6,328.4z"/>
	<path class="st5" d="M383.9,328.5c-9.6,1-10.4,6.8-10.4,8.7c0.2,5.9,5.5,7.5,9.6,7.6c4.6,0.1,10.6-2.5,10.6-7.4
		C393.9,331,388.6,328,383.9,328.5z"/>
	<g class="st6">
		<path class="st7" d="M373.4,160.7c-2.3-8.1-6.8-18.8-15.5-21.6c-4.8-1.6-9.9,2.6-9.8,7.5c0.1,6.5,3.9,13.3,5.6,19.6
			c2.2,8.3,3.5,14.6,11,19.7c1.6,1.1,4.5,0.8,5.7-0.7C376.1,178,376.2,170.5,373.4,160.7z"/>
		<path class="st7" d="M377.4,203.4c-0.2-1.7-0.6-3.3-1.1-5c-0.3-1.3-1.6-2.7-2.9-2.9c-0.8-0.1-1.3-0.2-2.1,0c0,0-0.1,0-0.1,0
			c-2,0.4-2.9,2.3-3.1,4.1c-0.2,1.3-0.3,2.6-0.1,3.9c0.2,2.1,1.3,3.9,3.5,4.5c1.4,0.4,2.4,0.1,3.6-0.5
			C376.4,206.8,377.6,204.9,377.4,203.4z"/>
		<path class="st7" d="M410.2,268.2c-0.4-0.9-0.4-0.8,0.2,0.3c-0.3-1-0.7-1.9-1.2-2.9c-0.7-1-1.4-2-2.1-3.1c-1.7-2.6-3.1-6-6-7.4
			c-3-1.4-7.3-1.7-9.7,1.2c-1.8,2.2-2.6,4-2.7,6.9c-0.1,2.3,1,5.2,1.9,7.2c0.7,1.3,1.4,2.6,2.2,3.9c0.7,1.1,1.4,2.1,2.4,3
			c0.6,0.5,1.2,0.9,1.8,1.4c-0.9-0.7-1.1-0.7-0.3-0.1c2.7,2.6,7.1,3.4,10.4,1.3c0.6-0.4,1.2-0.9,1.7-1.3
			C412,276,411.7,271.5,410.2,268.2z"/>
		<path class="st7" d="M431.5,316.4c-1-8.1-4.4-21-12.6-24.8c-2.3-1.1-5.7-0.8-6.9,1.8c-3.5,7.5,1.1,15.2,1.9,22.9
			c0.8,7.8-1.7,17.9,4.9,23.8c1.7,1.5,3.6,1.6,5.6,0.7C433.7,336.9,432.5,324.6,431.5,316.4z"/>
		<path class="st7" d="M418.4,351.3c-2,0.7-3.3,2-4.3,3.8c-0.9,1.7-1.4,3.4-0.8,5.3c0.8,2.4,3.9,4.2,6.2,2.5c0.5-0.3,1.1-0.5,1.5-1
			c0.3-0.4,0.6-0.7,0.9-1.1c1.4-1.5,2.1-2.8,2.4-5C424.8,352.9,421.1,350.3,418.4,351.3z"/>
		<path class="st7" d="M232.6,384.9c-4.1-8.1-11-14.5-15.4-22.6c-5.3-9.9-5-21.1-8.9-31.4c-1.3-3.3-5.5-5.1-8.3-2.2
			c-17.8,18.4,2.3,57.2,21.1,67.7C228.8,400.6,236.4,392.3,232.6,384.9z"/>
		<path class="st7" d="M250.4,403c0.5-1.7,0.4-3.7-0.6-5.2c-1.4-2-3-3.1-5.2-3.9c-1.7-0.6-3.3-0.6-5,0c-2.1,0.8-3.9,2.5-3.8,5
			c0,0.8,0.1,1.6,0.3,2.3c0.3,1.4,1.3,2.4,2.2,3.4c2.1,2.2,5.4,3.8,8.4,2.4c0.8-0.2,1.5-0.7,2.2-1.3
			C249.8,404.9,250.2,404,250.4,403z"/>
		<path class="st7" d="M215,300.2c0-1.6-0.5-2.6-1.2-4.1c-1.6-3.7-6.4-3.9-9.5-2.5c-3.2,1.5-4.7,5.3-5.2,8.6
			c-0.3,2.1-0.4,3.5-0.1,5.5c0.4,2.6,3.9,5.6,6.7,5.2c2.8-0.4,4.5-1.2,6.2-3.5c0.4-0.6,0.7-1.2,0.9-1.9c0.1-0.3,0.3-0.6,0.3-0.7
			c0.2-0.4,0.3-0.7,0.5-1.1c0.7-1.6,0.9-2.8,1.1-4.5C214.6,302.9,214.7,302.5,215,300.2z"/>
		<path class="st7" d="M253.8,221.7c-1.3-2.4-4-2.6-6.3-1.6c-3.1,1.3-4.9,5.3-5.7,8.4c-0.8,3.2-2.2,6.1-1.5,9.4
			c0.9,3.8,5.8,4.7,8.4,2.2C253.1,235.9,257,227.5,253.8,221.7z"/>
	</g>
</g>
<g>
	<g>
		<path class="st0" d="M839.5,385.1c-30.8,38.3-80.8,52.8-128.5,52.4c-26.9-0.3-54.3-5.1-76.3-21.6c-18.2-13.6-33.1-32.1-40.8-53.7
			c-13.2-37.2-5.4-83,22.3-111.9c14.2-14.8,33.7-26.2,54.6-27.5c14.8-0.9,29.2,1.9,43.5,5.8c8.6,2.3,13.6,4.8,21.2,5.2
			c3.8-0.2,9.1-2.8,9.2-2.9c22-11.9,39-15.1,63.1-5.8c19.8,7.6,35.4,25.9,43.7,45C867.7,307.8,865.8,352.3,839.5,385.1z"/>
		<path class="st8" d="M755.8,425.3c-30.3,6.3-64.7,7.3-94-3.4c-26.2-9.6-46-31.1-57.9-55.7c-19.6-40.4-6-94.9,29.9-121.4
			c20.2-14.9,44-16.7,68-11.4c21,4.6,31.1,11.8,52.8,1.5c15.5-7.3,23.9-7.4,32.7-6.9c17.1,1,32,10.7,43.1,23.1
			c18.7,20.7,25.7,51.1,23.7,78.3C850.3,381.2,803.1,415.4,755.8,425.3z"/>
		<path class="st0" d="M753.1,245c-5.5,8.2-18.6,8.9-27.6,8.1c-5.9-0.5-14.1-4.9-14.7-11.3c-0.1-0.8,0.9-1.3,1.6-0.9
			c3.8,2,6.7,4.3,10,5.7c1.3-13.9,1.3-27.7,3.2-41.6c1.5-10.8-0.3-17,12.1-15.9c1.4,0.1,3,2,3,3.4c0.2,20.1-3,36.4-3.8,54.7
			c4.9-1.3,9.2-3.5,14.4-4.5C752.5,242.5,753.9,243.8,753.1,245z"/>
		<path class="st2" d="M730.6,248.2c-1.7,0.1-3.1-0.1-4.5-0.4c0,0,0.1,0,0.1-0.1c0.7-8.4,3.7-41,4.7-50.8c0.1-1,4.9-2.1,5,0.6
			c0.3,5.6-0.9,11.4-1.3,16.9c-0.8,11.2-1.9,22.5-2.2,33.7C731.8,248.1,731.2,248.2,730.6,248.2z"/>
		<path class="st0" d="M781.7,220c-8.4,1.4-50.6-3-44.6-18.5c2.3-15,16.4-28.7,30.4-33.6c18.7-6.6,38.5-4.3,55.4,5.6
			c0.7,0.4,2.9,3.1,2.9,3.7C831.5,200.1,803.1,216.6,781.7,220z"/>
		<path class="st3" d="M775.3,170.4c14.4-3.6,30.5,1.4,43.7,5.6c-2.1,0.2-7.5,0.8-9.5,1.2c-7,1.3-14.1,2.5-21.2,4
			c0.5-0.6,0.9-1.4,1.2-2c0.8-1.4,2.7-3.6,2.2-5.2c-0.1-0.5-0.5-0.7-1-0.7c-1.8-0.2-2.9,2.1-3.5,3.5c-0.7,1.4-1.9,3.5-1.9,5.1
			c-1.9,0.4-3.8,0.8-5.7,1.2c-1.2,0.3-2.4,0.6-3.5,0.9c0.3-0.6,0.6-1.1,0.9-1.6c1.2-1.9,2.7-3.6,3.2-5.8c0.2-0.8-0.6-1.4-1.3-1
			c-2.1,1.1-3.3,3.4-4.5,5.3c-0.7,1.2-1.6,2.8-2.1,4.3c-2.3,0.8-4.5,1.6-6.6,2.5c0.6-1.2,1.2-2.4,1.2-3.8c0-0.7-0.8-1.3-1.4-0.8
			c-1.2,0.9-1.8,2.2-2.4,3.6c-0.3,0.8-0.8,1.7-1,2.6c-1.9,0.9-3.8,1.8-5.6,2.8c0-0.1,0.1-0.3,0.1-0.4c1-2.7,2.8-5.7,2.8-8.6
			c0-0.9-1-1.2-1.6-0.7c-2.1,1.8-3,5-4,7.5c-0.6,1.4-1.2,3-1.6,4.5c-4,2.2-7.9,4.6-11.9,7C745.2,185.5,759.5,174.4,775.3,170.4z
			 M789.3,212.5c-8.3,2.5-17.3,2.8-25.9,1.5c-4.8-0.7-17.7-4.1-22.7-9.7c3.2-1.2,6.1-3.3,9.1-4.8c1-0.5,2.1-1,3.1-1.5
			c1.3,1.4,3,2.6,4.3,3.9c1.9,1.9,3.6,4.5,6.2,5.4c0.8,0.3,1.5-0.5,1.3-1.3c-0.7-2.6-3.3-4.7-5.2-6.5c-0.9-0.9-2.1-2.1-3.3-3.1
			c2.5-1.1,5.1-2.2,7.7-3.2c2.4,2.1,5.1,3.9,7.5,6.1c2.8,2.5,5.4,6.9,9.3,7.5c0.8,0.1,1.4-0.5,1.3-1.3c-0.7-4.1-5.6-7.4-8.6-10
			c-1.4-1.2-3.2-2.8-5.2-3.9c2.9-1.1,5.8-2.1,8.7-3c0.5,0.5,1,1,1.4,1.5c0.8,0.9,1.6,1.7,2.4,2.5c1.4,1.3,3.2,3.7,5.2,4.1
			c0.7,0.1,1.4-0.3,1.4-1.1c0.2-2.3-2.5-4.2-4.1-5.5c-0.8-0.7-1.7-1.7-2.6-2.6c2.7-0.7,5.4-1.2,8.1-1.7c0.6,0.9,1.5,1.7,2.3,2.5
			c1.2,1.2,2.3,2.6,3.5,3.8c2.1,2.2,4,5.1,6.9,6.2c0.6,0.2,1.3-0.4,1.2-0.9c-0.2-3.6-3.6-6.3-6-8.7c-1.1-1.1-2.3-2.6-3.7-3.7
			c2.2-0.4,4.4-0.8,6.5-1.2c1.4-0.3,2.8-0.6,4.2-0.9c0.4,0.5,1,0.9,1.5,1.3c1.1,0.9,2.1,1.9,3,2.9c1.1,1.2,2.5,5.2,4.6,3.3
			c0.4-0.4,0.6-1.1,0.4-1.6c-0.6-2.4-2.2-4.2-4-5.8c-0.4-0.3-0.8-0.7-1.3-1.1c4.7-0.9,9.5-1.6,14.2-1.6
			C822.1,197.8,804.7,207.8,789.3,212.5z"/>
	</g>
	<g>
		<path d="M680.7,302.4c-2.4-2.9-13.7-6-15.4,9.3c-0.6,5.2,1.9,10.4,7.1,12.3c5.2,1.9,9.2-2.7,10.5-7.2
			C684.2,312.1,684,306.3,680.7,302.4z"/>
		<path class="st4" d="M678.9,306.3c-1-1.5-2.9-2.1-4.3-0.7c-1.6,1.6-1.9,8.7,3,7.7C679.5,312.9,680,308.1,678.9,306.3z"/>
		<path d="M785.1,303.1c-2.4-2.9-13.7-6-15.4,9.3c-0.6,5.2,1.9,10.4,7.1,12.3c5.2,1.9,9.2-2.7,10.5-7.2
			C788.5,312.8,788.3,307,785.1,303.1z"/>
		<path class="st4" d="M783.2,307c-1-1.5-2.9-2.1-4.3-0.7c-1.6,1.6-1.9,8.7,3,7.7C783.8,313.6,784.3,308.8,783.2,307z"/>
	</g>
	<path d="M734.5,317c-2.2,4.8-1.9,9.9-8.6,9.4c-7.5-0.5-7.6-8.2-9.1-9.9c-0.5-0.6-1.5-0.4-1.9,0.2c-1.7,2.6-0.3,6.5,1,9
		c1.7,3.1,4.9,4.5,8.3,5c3,0.5,6.6,0.1,9-1.9c3-2.4,4.3-5.7,4.5-10.3C738,315.2,735.4,315,734.5,317z"/>
	<path class="st9" d="M660.6,322.8c-9.6-1-11.6,4.5-11.9,6.4c-1,5.8,3.8,8.5,7.9,9.4c4.5,1,10.8-0.3,11.9-5
		C669.9,327.4,665.3,323.3,660.6,322.8z"/>
	<path class="st9" d="M793.9,322.9c-9.6,1-10.4,6.8-10.4,8.7c0.2,5.9,5.5,7.5,9.6,7.6c4.6,0.1,10.6-2.5,10.6-7.4
		C804,325.4,798.6,322.4,793.9,322.9z"/>
	<path class="st10" d="M818.9,250.4c-7.4-6.7-16.8-14.2-27.1-9.7c-5.1,2.2-5.5,10.1-1.8,13.7c4.8,4.5,10.3,8.2,15,13
		c6.2,6.3,8.3,16.8,16.8,20.6c5.1,2.3,9.8,0.4,11.9-4.8C838.3,271.4,827,257.7,818.9,250.4z"/>
	<path class="st10" d="M836.7,293.7c-3.5-2.1-8.3-0.2-9.4,3.8c-0.9,3.3-0.2,6.9,0.4,10.2c0.6,3.3,4.1,5.5,7.2,5.5
		c0.7,0,1.3-0.1,2-0.3c3.2-0.6,5.5-4.1,5.5-7.2C842.4,301.1,840.9,296.2,836.7,293.7z"/>
	<path class="st10" d="M614.3,333.2c-1-1.2-4.8-3.4-6.3-2.8c-7.3,2.8-4.7,16.7-2.2,24c3.1,9.4,9.1,27.5,20.4,25.5
		C636.7,377.9,619.1,338.9,614.3,333.2z"/>
	<path class="st10" d="M641.9,393.1c0-0.1,0-0.2-0.1-0.2c0-0.2-0.1-0.4-0.1-0.6c-0.4-1.4-1.2-2.3-2.1-3.4c-0.1-0.2-0.3-0.3-0.4-0.5
		c-0.2-0.2-0.8-1-1-1.2c-0.1-0.2-0.3-0.3-0.5-0.5c-0.1-0.1-0.1-0.2-0.2-0.3c-2.2-3.8-7.8-2-7.9,2.1c-0.1,1.9,0.5,3.8,1.4,5.5
		c1.3,2.1,2.7,3.9,5.1,4.3c0.5,0.2,1,0.3,1.7,0.4c2.2,0.3,4.3-2.1,4.2-4.2C642.1,394,642,393.6,641.9,393.1z"/>
	<path class="st10" d="M837.7,360.4c-0.1-1.3-0.3-2.4-1-3.5c-1.7-2.6-4.1-3.3-7.1-2.9c-0.7,0.1-1.3,0.3-1.9,0.7
		c-0.1,0.1-0.3,0.2-0.4,0.3c-3.2,1.4-5,4.8-6.3,8.1c0.8-2.1,0.1-0.4-0.1,0.1c-0.4,0.9-0.8,1.8-1.2,2.8c1.2-3.2-0.8,1.8-0.5,1.1
		c-0.3,0.8-0.4,1.6-0.4,2.4c-0.2,3.1,2.2,5.6,4.9,6.5c4.8,1.6,8.9-2.2,11.5-5.7C837.3,367.4,838.5,363.8,837.7,360.4z"/>
	<path class="st10" d="M683.8,242.5c-3.9-7.9-16.8-5.4-24-4.3c-10.9,1.6-20.5,7.2-25.3,17.2c-1.7,3.5,1.9,8,5.6,5.6
		c7-4.4,11.1-9.9,19.8-12c4.2-1,8.5-1.1,12.7-0.9c4.6,0.1,6.2,1.5,10-1.1C684.2,245.8,684.6,244.2,683.8,242.5z"/>
	<path class="st10" d="M698.5,243.5c-0.3-1.5-1.6-2.5-2.9-2.9c-1.4-0.5-2.8-0.5-4.2-0.2c-2,0.4-4,2.3-3.4,4.5
		c0.4,1.4,1.4,2.3,2.8,2.7c0.2,0.1,1.1,0.4,0.2,0c-0.3-0.1,2.5,1,1.1,0.4c0.8,0.4,1.4,0.7,2.4,0.7c1.2,0,2.2-0.5,3-1.2
		C698.7,246.5,698.8,245,698.5,243.5z"/>
	<path class="st10" d="M610.2,305.3c-1.6-1.9-4.3-1.4-6,0c-2.3,1.9-2.4,4.9-2.5,7.7c-0.1,2.9-0.5,6.2,1.4,8.6c2,2.6,5.1,2.6,7.1,0
		c1.7-2.2,1.5-5.1,1.8-7.7C612.2,310.7,612.5,308,610.2,305.3z"/>
</g>
<g>
	<path class="st0" d="M442.8,674.2c-10.1,22-26.4,41.7-47.5,54c-25.3,14.7-53.2,19.9-82.2,20.3c-54.4,0.8-110.7-16.5-138.2-67.5
		c-25.2-46.9-10.6-106.7,27.7-142.4c35.3-32.9,72.8-41.1,131-38c0.7,0,31.9,3.6,44.2,6.4c20.8,4.7,36.7,18.1,48.3,35.7
		C451.3,581,462.6,631.1,442.8,674.2z"/>
	<path class="st11" d="M366.8,733.5c-29.8,10.1-65.6,10.1-96.4,5c-30.6-5.1-57-20.1-77.2-43.4C150.7,646,169.3,574,216.6,535.6
		c23.2-18.8,57.7-28.1,83.3-28.9c33-1,74.9,4.5,90.7,11.9c25.7,12.1,40.8,43,49.1,68.5C460,648.7,427.9,712.7,366.8,733.5z"/>
	<path d="M328.8,527.2c-0.4-3.1-4.2-4.5-6.8-4.7c-4.8-0.5-13.5-1.6-15.9,3.4c-3.6,7.6,11.9,9.7,17.7,7.9
		C328.3,532.5,329.3,530.3,328.8,527.2z"/>
	<g>
		<path d="M263,633.8c-2.4-2.9-13.7-6.1-15.4,9.3c-0.6,5.2,1.9,10.4,7.1,12.3c5.2,1.9,9.2-2.7,10.5-7.2
			C266.4,643.4,266.2,637.6,263,633.8z"/>
		<path class="st4" d="M261.1,637.7c-1-1.5-2.9-2.1-4.3-0.7c-1.6,1.6-1.9,8.7,3,7.7C261.8,644.2,262.3,639.4,261.1,637.7z"/>
		<path d="M367.3,634.5c-2.4-2.9-13.7-6.1-15.4,9.3c-0.6,5.2,1.9,10.4,7.1,12.3c5.2,1.9,9.2-2.7,10.5-7.2
			C370.7,644.1,370.5,638.3,367.3,634.5z"/>
		<path class="st4" d="M365.4,638.4c-1-1.5-2.9-2.1-4.3-0.7c-1.6,1.6-1.9,8.7,3,7.7C366.1,644.9,366.6,640.1,365.4,638.4z"/>
	</g>
	<path d="M316.8,648.3c-2.2,4.8-1.9,9.9-8.6,9.4c-7.5-0.5-7.6-8.2-9.1-9.9c-0.5-0.6-1.5-0.4-1.9,0.2c-1.7,2.6-0.3,6.5,1,9
		c1.7,3.1,4.9,4.5,8.3,5c3,0.5,6.6,0.1,9-1.9c3-2.4,4.3-5.7,4.5-10.3C320.2,646.6,317.6,646.4,316.8,648.3z"/>
	<path class="st5" d="M242.9,654.2c-9.6-1-11.6,4.5-11.9,6.3c-1,5.8,3.8,8.5,7.9,9.4c4.5,1,10.8-0.3,11.9-5
		C252.2,658.7,247.6,654.7,242.9,654.2z"/>
	<path class="st5" d="M376.2,654.2c-9.6,1-10.4,6.8-10.4,8.7c0.2,5.9,5.5,7.5,9.6,7.6c4.6,0.1,10.6-2.5,10.6-7.4
		C386.2,656.7,380.9,653.7,376.2,654.2z"/>
	<path class="st12" d="M185.9,647.1c-0.4-0.8-0.7-1.7-1.4-2.2c-0.9-0.7-2.1-0.9-3.1,0c-1.7,1.6-0.9,4.4-0.3,6.3
		c0.4,1.2,1.5,2.1,2.8,2.1c1.5,0,3-1.3,2.9-2.9C186.7,649.1,186.4,648.2,185.9,647.1z"/>
	<path class="st12" d="M182.3,619.8c-1.4-1.1-2.9-1.1-4.3,0c-1.3,1.1-1.5,3.3-1.6,4.9c-0.1,2.1,1.4,4.5,3.7,4.5
		c2.4,0,3.7-2.4,3.7-4.5C183.8,623.2,183.5,620.9,182.3,619.8z"/>
	<path class="st12" d="M201.9,628.5c-0.3-1-0.6-2-1.1-2.9c-1.1-1.9-4.5-2.3-5.6,0c-1.4,3-0.7,7.6,2.9,8.6c1.3,0.4,2.9-0.2,3.5-1.4
		C202.3,631.3,202.4,629.9,201.9,628.5z"/>
	<path class="st12" d="M191.2,638.2c-0.9,1.3-0.1,4,1.3,4.6c0.8,0.4,1.5,0.3,2.2-0.3C197.2,640.4,193.4,635.2,191.2,638.2z"/>
	<path class="st12" d="M208.3,648c-0.6-1-1.5-1.5-2.7-1.6c-1.3-0.1-2.1,1.5-1.5,2.6c0.5,0.9,0.8,2.6,2.3,2.8
		c0.9,0.1,1.7-0.1,2.1-0.9C209.2,649.9,208.9,649,208.3,648z"/>
	<path class="st12" d="M197,668.5c-1.3-1.3-3.7-3.4-5.4-1.4c-1.3,1.5-1,3.9,0.2,5.4c1.2,1.6,2.7,2,4.5,1.2c0.4-0.2,1-0.8,1.2-1.2
		C198.2,671.1,198.1,669.6,197,668.5z"/>
	<path class="st12" d="M198.9,657.7c-1.3-0.8-2.8,0.3-2.9,1.7c-0.1,1.8,1.5,4.1,3.5,3.9c0.7-0.1,1.4-0.4,1.6-1.2
		C201.5,660.3,200.3,658.5,198.9,657.7z"/>
	<path class="st12" d="M208.5,684c-1.2-0.2-2.7,1.1-1.8,2.3c0.8,1.1,1.2,2.6,2.7,2.9c1.1,0.2,2.5-0.5,2.4-1.8
		C211.7,685.7,210.2,684.3,208.5,684z"/>
	<path class="st12" d="M221.9,676.5c-2-1.2-3.8,0.7-3.5,2.7c0.2,1.5,1.1,3.5,2.5,4.2c1.6,0.8,3.3,0.1,3.9-1.6
		C225.6,679.5,223.6,677.5,221.9,676.5z"/>
	<path class="st12" d="M208.9,665.1c-2.7,1.4-1.2,5.4,0.8,6.6c1.5,0.9,4-0.2,3.8-2.2C213.4,667.6,211.4,663.9,208.9,665.1z"/>
	<path class="st12" d="M218.4,705c-0.2-0.6-0.4-1.2-0.9-1.6c-0.5-0.4-1-0.8-1.5-1.2c-0.9-0.6-1.9-1.2-2.9-1.3
		c-1.1-0.1-2.2,1.1-2.1,2.1c0.1,1.2,0.9,2.6,1.7,3.5c1.1,1.2,2.4,1.8,4.1,1.4C217.8,707.7,218.9,706.2,218.4,705z"/>
	<path class="st12" d="M226.1,700.1c-1.7-0.1-2.9,2-2,3.4c0.8,1.1,1.3,2.6,2.6,3.2c1.6,0.8,4.2-0.2,4-2.3
		C230.4,702.1,228.5,700.3,226.1,700.1z"/>
	<path class="st12" d="M250.9,695.2c-0.6-0.4-1.1-0.9-1.9-1.1c-1-0.3-1.9,0.2-2.5,0.9c-0.9,1.3-0.1,2.8,0.7,3.8
		c1.1,1.4,2.5,2.8,4.5,2.2c0.7-0.2,1.4-0.8,1.5-1.5C253.7,697.5,252.5,696.2,250.9,695.2z"/>
	<path class="st12" d="M250.5,718.9c-1.2-0.7-2.6-0.7-3.9-0.6c-1.7,0.2-4,1.4-3.3,3.5c0.7,2.2,4.4,3.4,6.5,2.6c1-0.4,1.8-1,2.1-2.1
		C252.2,721.1,251.7,719.6,250.5,718.9z"/>
	<path class="st12" d="M246.4,708.2c-0.7-0.7-1.8-0.9-2.7-1.2c-2.7-0.9-4.1,3-1.8,4.4c1.5,1,4,2.3,5.3,0.2
		C247.8,710.3,247.2,709.1,246.4,708.2z"/>
	<path class="st12" d="M275.6,719.4c-1.2-1.7-2.9-2.4-4.9-2.6c-1-0.1-1.9,0.8-2.2,1.7c-0.3,1,0.2,2,1,2.6c1.1,0.8,2,1.7,3.3,1.9
		C274.8,723.3,276.9,721.3,275.6,719.4z"/>
	<path class="st12" d="M274,695.9c-1.4-0.6-2.8-0.7-4.3-0.5c-0.7,0.1-1.3,0.9-1.5,1.5c-0.3,1,0.2,1.9,1,2.4c0.9,0.7,2,1.1,3.1,1.4
		c1.1,0.4,2.9-0.4,3.2-1.6C275.9,697.8,275.2,696.4,274,695.9z"/>
	<path class="st12" d="M262.4,679.6c-1.5-0.6-2.9-0.6-4.2,0.5c-1,0.8-0.8,2.3,0,3.2c0.7,0.8,2.3,1.9,3.4,1.8c-0.3-0.1-0.1-0.1,0.5,0
		c0.4,0,0.8-0.1,1.2-0.3c0.6-0.3,0.9-0.8,1.1-1.5C265,681.8,263.8,680.2,262.4,679.6z"/>
	<path class="st12" d="M298.3,730.3c-1.5-0.8-3.1-0.9-4.7-0.2c-1.6,0.7-2.9,2.8-1.3,4.3c0.4,0.4,0.8,0.7,1.3,0.8c0,0,0,0,0.1,0
		c0.2,0.1,0.6,0.2,0.8,0.3c0.8,0.3,2.3,0.2,3.1-0.1c0.9-0.4,1.7-0.9,2-2C299.9,732.2,299.4,730.9,298.3,730.3z"/>
	<path class="st12" d="M294.8,719.5c-0.8-1-1.8-1-3-1.3c-2.5-0.7-3.6,3.1-1.1,3.9c1.5,0.5,3,0.7,4-0.6
		C295.3,720.8,295.3,720.1,294.8,719.5z"/>
	<path class="st12" d="M288.5,708.8c-2.5,0.2-2.5,3.7,0,3.9c1.5,0.1,4.7,0.4,4.7-1.9C293.2,708.4,290,708.7,288.5,708.8z"/>
	<path class="st12" d="M313.7,712.4c-2-0.7-5.4,0.3-6.3,2.3c-0.8,1.9-0.3,4.1,1.9,4.7c0.8,0.2,1.6,0.1,2.4,0.1
		c1.3,0,2.6-0.5,3.5-1.4C317.2,716.3,316,713.2,313.7,712.4z"/>
	<path class="st12" d="M332.3,703.3c-1-1.7-3-1.6-4.6-1.1c-2.2,0.6-2.2,3.7,0,4.4c1.6,0.5,3.6,0.6,4.6-1.1
		C332.7,704.8,332.7,704,332.3,703.3z"/>
	<path class="st12" d="M333.6,717c-0.9-0.8-1.7-0.7-2.8-0.6c-2.1,0.2-2.1,3.1,0,3.3c1.1,0.1,1.9,0.2,2.8-0.6
		C334.2,718.6,334.2,717.5,333.6,717z"/>
	<path class="st12" d="M327.4,729.2c-1.5-0.4-3.8-0.4-5,0.7c-0.6,0.6-0.5,1.5,0,2c1.5,1.6,4.8,1.6,6-0.4
		C328.9,730.7,328.4,729.5,327.4,729.2z"/>
	<path class="st12" d="M349.6,725.4c-0.8-0.1-1.5,0.1-2.2,0.4c-0.8,0.3-1.6,0.5-2.3,0.9c-1.1,0.5-0.6,2.1,0.3,2.4
		c1.7,0.6,3.9-0.1,5.2-1.2C351.8,727,350.8,725.5,349.6,725.4z"/>
	<path class="st12" d="M356.1,713c-0.8,0.4-0.5,1.5,0.2,1.8c1.3,0.5,3.5,0,3.6-1.6C360,711.3,356.8,712.7,356.1,713z"/>
	<path class="st12" d="M377.4,711c-1.7-0.3-3.2,0.6-4.3,1.8c-0.9,1.1-0.1,2.9,1.5,2.5c1.2-0.4,2.7-0.6,3.6-1.6
		C378.8,712.9,378.6,711.2,377.4,711z"/>
	<path class="st12" d="M202.5,603.1C202.5,603.1,202.5,603.1,202.5,603.1C202.5,603.1,202.5,603.1,202.5,603.1c0-0.1,0-0.1,0-0.2
		c0-0.3-0.1-0.6-0.3-1c-0.4-0.6-1.1-0.8-1.8-0.5c-1.6,0.8-1.8,3.1-2,4.7c-0.1,1,1.2,1.7,2,1.2C201.7,606.5,202.7,604.7,202.5,603.1z
		"/>
	<path class="st12" d="M187,596.3c-1.3,1.6-1.7,4-0.9,5.9c0.4,0.8,1.8,0.8,2.1,0c0.7-1.5,1.2-3.3,1.4-4.9
		C189.7,596.1,187.8,595.4,187,596.3z"/>
	<path class="st12" d="M216.4,618.5c-0.7-1.1-2.1-1.3-3.1-0.4c-1.4,1.3-1.9,3.9-0.6,5.3c0.6,0.6,1.7,0.7,2.4,0.3
		C216.6,622.7,217.5,620.1,216.4,618.5z"/>
	<path class="st12" d="M214,590.7c-0.4-0.9-1.5-1-2.3-0.6c-1.5,0.7-1.8,2.8-1.6,4.3c0.2,1.2,1.8,1.4,2.6,0.7c0.5-0.5,1-1.1,1.3-1.8
		C214.4,592.3,214.4,591.6,214,590.7z"/>
	<path class="st12" d="M202.8,581c-0.2-0.7-0.9-1.2-1.6-1.3c-1.1-0.3-2.3,0.3-3,1.2c-0.8,1.1-1.4,3-0.6,4.2c0.5,0.8,1.3,1.1,2.3,0.9
		c1.2-0.2,2.3-1.4,2.9-2.4C203.3,582.9,203.3,581.8,202.8,581z"/>
	<path class="st12" d="M221,569c-0.2-1.3-1.8-1.7-2.8-1.2c-1.1,0.7-2.1,1.8-2.4,3c-0.3,1,0.3,1.9,1.3,2.2c1,0.3,1.8,0,2.6-0.5
		C220.9,571.6,221.3,570.4,221,569z"/>
	<path class="st12" d="M205,565c-0.7-2.2-3.4,0.1-4.3,0.9c-1,1-0.2,2.6,1.1,2.6C203.6,568.7,205.6,566.9,205,565z"/>
	<path class="st12" d="M232.2,600.6c-0.9-0.9-2.5-0.9-3.4,0c-0.8,0.9-1.1,2-1.1,3.1c0,1.4,0.7,2.3,1.8,3.1c0.5,0.4,1.4,0.4,1.9,0
		c1.2-0.8,1.7-1.6,1.8-3.1C233.4,602.6,232.9,601.4,232.2,600.6z"/>
	<path class="st12" d="M229.5,633.5c-0.6-0.9-1.7-1.4-2.7-0.8c-1.6,0.9-1.4,3-0.5,4.3c0.9,1.4,3.3,1.3,3.7-0.5
		C230.2,635.4,230.1,634.4,229.5,633.5z"/>
	<path class="st12" d="M299.3,680.5c-0.8-0.9-1.4-1.2-2.6-1.3c-0.9-0.1-1.9,0.2-2.7,0.6c-1.4,0.9-1.4,2.9,0,3.7
		c0.6,0.4,1.3,0.5,2,0.6c0.6,0.1,1.2,0.2,1.8,0c0,0,1.3-0.7,1.1-0.6C300.1,683.1,300.1,681.4,299.3,680.5z"/>
	<path class="st12" d="M407.4,688.4c-1.5,0.4-3.1,1.4-3.6,2.9c-0.4,1.3,0.5,2.6,1.7,3c1.2,0.4,3-0.2,4.1-0.8
		C412.2,691.8,410.5,687.5,407.4,688.4z"/>
	<path class="st12" d="M390.1,687.4C389.8,687.5,389.8,687.5,390.1,687.4c-0.7-0.1-1.5,0-2.1,0.3c-0.6,0.4-1.2,0.8-1.7,1.3
		c-1,1-2,2.7-1,4c0.6,0.8,1.2,1,2.2,0.9c1-0.1,1.4-0.7,2.1-1.1c0.4-0.2,0.7-0.4,1-0.6c0.4-0.2,0.7-0.6,1-1c0.1-0.2,0.1-0.3,0.2-0.5
		c0,0,0-0.1,0.1-0.2C392.9,689.4,391.8,687.3,390.1,687.4z"/>
	<path class="st12" d="M411.9,664.9c-1.1-0.6-2.2-0.2-2.9,0.7c-0.6,0.8-0.8,1.7-1.2,2.5c-0.8,1.5,0.9,3.6,2.5,2.5
		c1.1-0.7,1.7-1.8,2.3-2.9C413.1,666.8,412.9,665.5,411.9,664.9z"/>
	<path class="st12" d="M423.9,669.3c-0.7,0.8-1,1.6-1.4,2.6c-0.5,1.1-0.7,2.2-0.2,3.3c0.4,0.9,1.6,1,2.4,0.6c0.8-0.4,1.4-1.3,1.8-2
		c0.6-0.9,1.2-1.8,1-3C427.3,669.1,425.3,667.9,423.9,669.3z"/>
	<path class="st12" d="M424.4,657.3c0-0.3,0-0.5-0.1-0.7c0-1.3-1.1-1.8-2.3-1.4c-1.4,0.3-2,1.7-2.1,3.1c-0.1,1.1,1,2.1,2.1,2.1
		c1.2,0,2-1,2.1-2.1C424,658.9,424.4,657.3,424.4,657.3z"/>
	<g>
		<path class="st12" d="M293,519.4c-0.4,0-0.7,0-1.1,0.1c0.2-0.1-0.3,0.1-0.5,0.2c-1.8,0.7-1.9,3.1,0,3.7c1.1,0.4,2.2,0.2,3-0.7
			C295.8,521.5,294.7,519.6,293,519.4z"/>
		<path class="st12" d="M291.4,519.8C291.4,519.8,291.4,519.8,291.4,519.8C291.2,519.9,291.3,519.8,291.4,519.8z"/>
	</g>
	<path class="st12" d="M282.7,515.2c-1.5-0.1-3.6,1.4-3.9,2.9c-0.2,1,0.5,2.3,1.6,2.1c1.5-0.1,3.7-1.1,4-2.8
		C284.6,516.2,283.9,515.3,282.7,515.2z"/>
	<path class="st12" d="M304.4,510.4c-1.1-0.6-1.9-0.5-3.1,0c-0.8,0.3-1.6,1-2.2,1.6c-1.1,1.1-0.3,2.8,1.2,2.9
		c1.5,0.1,3.4-0.9,4.4-1.9C305.4,512.3,305.3,511,304.4,510.4z"/>
	<path class="st12" d="M304.6,518.8c-1.1-1.9-3.4-1.2-4.7,0c-0.7,0.6-0.8,1.8-0.3,2.6c0.5,0.9,1.4,1.1,2.4,1
		C303.5,522,305.6,520.5,304.6,518.8z"/>
	<path class="st12" d="M299.3,536.8c-0.9-1.8-3.7-2.2-5.3-1.2c-1.1,0.7-1,2.1,0,2.8c1.4,0.9,3.3,1.3,4.8,0.5
		C299.5,538.5,299.7,537.6,299.3,536.8z"/>
	<path class="st12" d="M317.1,539.1c-0.9-0.1-1.7,0.1-2.5,0.5c-0.9,0.5-0.9,1.9,0,2.5c0.8,0.4,1.6,0.6,2.5,0.5
		C319.4,542.5,319.4,539.3,317.1,539.1z"/>
	<path class="st12" d="M312.3,550c-1.3,0.3-3.2,0.8-3.9,2c-0.3,0.5-0.3,1.1,0,1.6c1.1,1.7,3.4,1.3,5.1,0.8
		C316.3,553.5,315.2,549.3,312.3,550z"/>
	<path class="st12" d="M330.4,545.9c-1.6-0.5-4,0.2-4.8,1.7c-0.3,0.6-0.4,1.4,0,2c1.4,2.1,4.9,1.7,6.2-0.5
		C332.4,547.8,331.7,546.3,330.4,545.9z"/>
	<path class="st12" d="M333.4,535c-1.5-0.3-3.5,0.4-4.1,1.9c-0.4,1-0.1,2.2,1,2.5c1.6,0.4,3.4-0.2,4.3-1.6
		C335.2,536.8,334.6,535.2,333.4,535z"/>
	<path class="st12" d="M343.4,537.8c-1.6-0.7-3-0.4-4.3,0.8c-1,1-1.6,2.8-0.7,4.1c0.6,0.9,1.4,1.2,2.4,1c0.9-0.2,1.1-0.6,1.9-0.9
		c0.9-0.4,1.6-1.2,1.9-2.2C344.8,539.6,344.4,538.2,343.4,537.8z"/>
	<path class="st12" d="M322.8,513.7c-1.7-1.1-4.7-0.8-5.7,1.2c-0.5,1-0.3,2.2,0.7,2.9c1.4,0.9,3.6,0.7,5-0.2
		C324.2,516.7,324.3,514.7,322.8,513.7z"/>
	<path class="st12" d="M341.8,516.3c-1.3-0.9-3.3-0.7-4.6,0c-1.1,0.6-1.1,2.4,0,3c1.2,0.6,2.8,0.9,4.2,0.6
		C343.2,519.5,343.1,517.2,341.8,516.3z"/>
	<path class="st12" d="M340.8,526.9c-1.2-1.3-3.7-1.5-4.9-0.1c-0.6,0.7-0.6,1.5,0,2.3c0.9,1.1,2.8,1.2,4.1,0.8
		C341.4,529.5,341.7,527.9,340.8,526.9z"/>
	<path class="st12" d="M352.3,528.4c-1.1-0.4-2.3-0.6-3.4,0.1c-0.7,0.4-1,1.6-0.3,2.2c0.7,0.6,1.4,0.9,2.2,1.2
		C353.4,533,354.9,529.4,352.3,528.4z"/>
	<path class="st12" d="M286,528.5c-1-0.8-2.2-1.3-3.5-1c-1.1,0.2-1.3,1.4-0.9,2.3c0.4,1,1.5,1.7,2.6,1.9
		C285.9,532.1,287.5,529.8,286,528.5z"/>
	<path class="st12" d="M294.9,546.1c-0.6-0.2-1.2-0.3-1.8-0.2c-1.7,0.1-2.3,2.2-0.9,3.2c0.5,0.4,1.1,0.5,1.7,0.7
		C296.3,550.4,297.2,546.8,294.9,546.1z"/>
	<path class="st12" d="M275.3,538.1c-0.2-0.7-0.8-1.2-1.7-1.3c-1.1-0.1-2.3-0.1-3.3,0.5c-0.9,0.5-0.9,1.9,0,2.4
		c0.9,0.5,1.8,0.5,2.8,0.7c0.6,0.1,1.4,0,1.8-0.6C275.5,539.3,275.5,538.6,275.3,538.1z"/>
	<path class="st12" d="M261.6,527.7c-0.8-0.1-1.2-0.1-1.8,0.3c-0.5,0.3-1,0.6-1.4,1c-0.8,1-0.3,2.5,1,2.5c0.6,0,1.1-0.1,1.7-0.3
		c0.9-0.3,1.2-0.7,1.7-1.4C263.6,528.9,262.6,527.8,261.6,527.7z"/>
	<path class="st12" d="M363.8,525.8c-1.4-1-3.5-0.8-4.6,0.5c-0.9,1-0.9,2.3,0,3.3c0.3,0.3,0.6,0.6,0.9,0.7c0.3,0.2,0.6,0.3,0.9,0.4
		c0.3,0.1,1.6,0.2,0.7,0.1C364.8,531.3,366.4,527.7,363.8,525.8z"/>
	<path class="st12" d="M348.1,703.4c-0.7,0.2-1.5,0.5-2.1,0.9c-1.5,0.8-1,2.8,0.4,3.3c1.1,0.4,2.3,0.1,3.2-0.6
		C351.3,705.7,350.3,702.8,348.1,703.4z"/>
	<g>
		<path class="st12" d="M299.9,697.4c-0.2-0.2-0.3-0.4-0.5-0.6c-1.3-1-3.3-1.1-4.7-0.1c-1.3,0.9-1.3,2.6,0,3.6
			c1.4,1,3.4,0.9,4.7-0.1c0.2-0.2,0.3-0.3,0.5-0.6C300.3,699,300.3,697.9,299.9,697.4z"/>
		<polygon class="st12" points="299.3,696.8 299.3,696.8 299.4,696.8 		"/>
		<path class="st12" d="M299.3,696.8c-0.3-0.2-0.6-0.4-1-0.6C298.7,696.4,299,696.6,299.3,696.8z"/>
		<polygon class="st12" points="299.4,700.1 299.3,700.1 299.3,700.1 		"/>
		<path class="st12" d="M299.3,700.1c-0.3,0.2-0.7,0.4-1,0.6C298.8,700.5,299.1,700.4,299.3,700.1z"/>
	</g>
	<g>
		<path class="st12" d="M196.3,684.6c0.1,0,0.1,0,0.2,0C195.7,684.5,195.9,684.5,196.3,684.6z"/>
		<path class="st12" d="M199.3,686.8c-0.3-0.5-0.7-0.9-1.1-1.2c-0.3-0.2-0.6-0.5-0.9-0.7c-0.1-0.1-0.7-0.2-1.1-0.3
			c-1.4-0.2-2.6,0.5-3.1,1.9c-1.2,3,3,6.3,5.6,4.6C200.3,690.1,200.2,688.2,199.3,686.8z"/>
	</g>
	<path class="st12" d="M237.9,684.8c-0.9-0.4-1.7-0.6-2.7-0.4c-1.6,0.4-1.9,2.1-1.4,3.4c-0.5-1.1,0.2,0.4,0.1,0.3
		c0.2,0.3,0.5,0.7,0.7,1c0.6,0.8,1.7,1.1,2.6,1.1c1.2,0,2.6-1.1,2.4-2.4C239.4,686.6,239,685.4,237.9,684.8z"/>
	<path class="st12" d="M368.6,700c-0.5-0.6-1.5-0.9-2.3-0.6c-1.5,0.6-2.4,1.3-3,2.8c-0.3,0.7,0.2,1.7,0.8,2c1.3,0.6,2.6,0.4,3.8-0.3
		C369.2,703,369.8,701.3,368.6,700z"/>
	<path class="st12" d="M368.9,722.4c-1.7,0.1-3.3,0.7-4.4,2.2c-0.6,0.9-0.2,1.9,0.3,2.6c0.7,0.9,2.3,1.2,3.4,0.9
		c1.2-0.4,2.1-0.9,2.7-2C371.9,724.6,370.8,722.3,368.9,722.4z"/>
	<path class="st12" d="M393.8,706.4c-1.7,0.5-2.5,1.2-3.6,2.5c-1.6,1.8-0.1,5.1,2.5,4.3c0.8-0.3,1.6-0.5,2.3-1
		c1.1-0.7,1.6-1.5,2-2.6C397.6,707.7,395.5,705.9,393.8,706.4z"/>
	<path class="st12" d="M416,676.8c-0.1-0.6-0.7-1.2-1.4-1.4c-2-0.4-4.2,1.5-4.9,3.3c-0.3,0.7,0.2,1.8,0.9,2.1
		C413,682,416.5,679.6,416,676.8z"/>
	<path class="st12" d="M438.5,647.3c-0.5-1.5-2.5-2.8-4-1.6c-0.8,0.6-1.2,1.2-1.7,2c-0.2,0.4-0.4,0.9-0.5,1.3
		c-0.2,0.6,0,1.1-0.1,1.7c-0.3,2.4,3.1,3.4,4.6,1.9c-0.4,0.4,0.6-0.5,0.7-0.6c0.5-0.4,0.7-1.1,0.9-1.7
		C438.7,649.5,438.8,648.2,438.5,647.3z"/>
	<g class="st13">
		<path class="st14" d="M418.5,558.3c-6-12.2-14.8-23.2-28-27.6c-8.9-3-16,6.2-14.3,14.3c0.9,4.4,3.9,7.4,6.5,11
			c4,5.5,7.3,11.2,10.2,17.3c5.1,10.6,6.8,24.7,17.6,31.1c4.9,2.9,10.6,1,13.6-3.6C432.3,588.4,424.3,570.1,418.5,558.3z"/>
		<path class="st14" d="M431.1,624.4c0-1.4-0.4-2.9-0.7-4.3c-0.5-3-2.3-5.8-4.7-7.6c-2-1.5-4.8-0.6-6.5,0.8c-2.3,2-2.6,4.9-2.8,7.8
			c-0.1,1.4,0.2,2.9,0.5,4.3c0.1,0.9,0.4,1.7,0.9,2.5c0.4,0.5,0.7,1,1.1,1.4c1.5,1.3,1.9,1.6,1.2,0.8c2.9,2.3,7.3,2.4,9.4-1.2
			c-0.8,0.9-0.6,0.5,0.7-1C430.8,626.9,431.1,625.7,431.1,624.4z"/>
		<path class="st14" d="M213.4,679.2c-10.6-12.1-14.7-28.4-25.2-40.5c-2.9-3.4-9.1-1.6-10,2.6c-3.3,14.5,6.2,30.1,13.4,42.1
			c5.6,9.3,21.1,31.4,34.2,25.6C239.4,702.9,217.5,683.9,213.4,679.2z"/>
		<path class="st14" d="M248.7,713.8c-0.9-1.3-1.7-2.4-3.1-3.3c-0.9-0.6-1.9-1-3-1.3c-1.5-0.5-2.9-0.9-4.4-0.9
			c-3.2,0.1-6,2.6-5.9,5.9c0.1,2.6,1.2,4.9,3.2,6.6c2.3,1.9,4.4,3,7.4,3C247.7,724,251.7,718.1,248.7,713.8z"/>
		<path class="st14" d="M253,524c-11.3-4.4-23.9,6.7-31.6,13.7c-3.9,3.6-9.6,9-11.1,14.3c-1.6,5.8,0.7,11.4,7,12
			c5.3,0.5,9-5.3,12.2-8.6c4.2-4.4,8.9-8.5,14-11.9c4.9-3.2,10-5.3,13.2-10.5C258.9,529.3,256.6,525.4,253,524z"/>
		<path class="st14" d="M274,518.2c-1.3-1-3.2-1.5-4.8-0.9c-2.1,0.7-4.7,1.4-6.3,3.1c-2.1,2.3-1.6,5.5,0.9,7.2
			c2.4,1.6,5.7,1,8.3,0.3c1.8-0.5,3.5-2,3.9-3.9c0-0.2,0.1-0.3,0.1-0.5c0,0,0,0.1-0.1,0.1C276.8,521.6,276.1,519.2,274,518.2z"/>
		<path class="st14" d="M430.6,641.7c-2.4-3-8.6-3-10.9,0c-4,5.1-5.2,12.5-4.6,18.7c0.3,2.7,1.3,5.8,4,7c1.4,0.6,2.6,1,4.1,1.1
			c2.8,0.2,5.6-1.7,7.1-4C434.3,657.9,435.8,648.3,430.6,641.7z"/>
	</g>
</g>
<g>
	<path class="st0" d="M950.4,545.8c-3.3,9.5-7,19-10,28.6c-4.1,12.8-7.3,25.9-12,38.6c-8.7,23.5-21.2,44-40.6,60.2
		c-19,15.8-40.5,27.8-63,37.8c-23.9,10.6-48,19.6-74.4,20.9c-28.2,1.3-55.8-3.6-82.8-11.6c-22.8-6.7-45.9-14.9-65.9-27.9
		c-20.3-13.2-36.6-30.4-49.3-51.1c-13.4-21.8-27.3-45.6-27.5-71.8c-0.6-24.2,22.7-21.8,32.2-22.1c37.9-1.3,74.1,21.3,108.5,33.9
		c19.5,7.1,39.7,12.4,60.5,10.9c22.2-1.6,42.8-10.5,64.7-14c19.6-3.2,39.4-5.3,59.1-8.3c14-2.1,40.7-8,49.7-18.2
		c5.6-6.4,11-12.6,15.5-19.8c5.1-8.1,11.8-13.9,22-13.2c5.8,0.4,17.2,0.7,18.6,8.4C956.8,533.6,954.2,540.2,950.4,545.8z"/>
	<path class="st0" d="M531.3,569.2c0.1-8.3,7.9-11.8,14.8-13.4c0.2,2.6-0.6,6.2-1.2,8.4c-1,3.2-3.8,5.8-6.5,7.6
		c-1.9,1.3-4.2,1.9-6.4,2.5C531.7,572.6,531.5,570.9,531.3,569.2z"/>
	<path class="st15" d="M948.3,532.7c-22.4,41.9-22.8,92.3-58,127.6c-16,16-36,27.7-56.2,37.7c-23.9,11.9-48.8,22.1-75.5,25.3
		c-47.8,5.7-102.1-9.5-144.1-32.1c-21.1-11.3-37.7-27.3-51.3-46.9c-13-18.6-24.9-40.5-29.8-63.1c4.8-0.7,9.1-2.3,13.2-5.6
		c5.8-4.7,8.6-13.5,6.9-20.9c0.4,0,0.8-0.1,1.2-0.1c15.7-1.6,33.4,4.6,48.1,9.4c33.3,10.9,64.2,30.2,99.5,34.6
		c17.1,2.1,33.6,0.7,50.3-3.4c18.8-4.7,36.9-9.3,56.1-12.6c16.9-2.9,34.1-4.2,51-7c15.4-2.5,35.5-6.2,45.5-19.4
		c5.8-5.2,10.6-12.2,14.2-17.6c6-9.1,11.2-12.7,20.3-12.4c-4,6.4-6.1,13.9-9.4,20.7c-3.1,6.4-6.5,12.2-6.1,19.5
		c0.1,1.1,1.4,1.7,2.2,0.9c4.5-4.5,5.8-11.9,8.7-17.6c3.7-7.2,6.9-15.2,9.3-23c0,0,0-0.1,0-0.1c0.3,0,0.6,0.1,0.9,0.1
		C947.7,527,948.4,529.5,948.3,532.7z"/>
	<path class="st0" d="M655,656.2c-8.2-5.3-17.7-8.5-26.2-13.3c-9.2-5.3-16.8-14.1-24.6-21.2c-15.1-13.8-31.4-26.1-46.9-39.4
		c-1-0.8-2.8,0.3-1.9,1.5c5,6.7,13.5,11.7,19.9,17c9.1,7.5,17.8,15.5,26.5,23.4c15.5,14,31.1,29.7,52.6,33.7
		C655.3,658.1,655.9,656.8,655,656.2z"/>
	<path class="st0" d="M921.4,574.8c-7,7-11,16.3-18.4,23.1c-8.1,7.4-18.1,14.4-27,20.7c-16.6,11.6-35.7,25.1-55.8,29.4
		c-1.3,0.3-0.9,2.1,0.3,2.2c8.1,0.8,17.6-5,25-8.2c11.6-5.1,22-12.9,32.6-19.8c16.4-10.8,39.8-25.9,45.1-46.2
		C923.4,574.8,922.1,574.1,921.4,574.8z"/>
	<g>
		<path d="M691.8,637.6c-2.5-3-14.3-6.3-16.1,9.7c-0.6,5.5,1.9,10.9,7.4,12.9c5.5,2,9.6-2.8,11-7.6
			C695.4,647.7,695.2,641.7,691.8,637.6z"/>
		<path class="st4" d="M689.9,641.7c-1.1-1.6-3.1-2.2-4.5-0.7c-1.6,1.7-2,9.1,3.2,8C690.6,648.6,691.1,643.5,689.9,641.7z"/>
		<path d="M800.9,638.3c-2.5-3-14.3-6.3-16.1,9.7c-0.6,5.5,1.9,10.9,7.4,12.9c5.5,2,9.6-2.8,11-7.6
			C804.5,648.4,804.3,642.4,800.9,638.3z"/>
		<path class="st4" d="M798.9,642.4c-1.1-1.6-3.1-2.2-4.5-0.7c-1.6,1.7-2,9.1,3.2,8C799.6,649.3,800.1,644.3,798.9,642.4z"/>
	</g>
	<path d="M748,652.8c-2.3,5-1.9,10.4-9,9.9c-7.8-0.6-7.9-8.6-9.5-10.4c-0.6-0.6-1.5-0.4-2,0.3c-1.8,2.7-0.3,6.8,1.1,9.4
		c1.8,3.3,5.2,4.7,8.7,5.3c3.1,0.5,6.9,0.1,9.4-2c3.1-2.6,4.5-6,4.7-10.8C751.7,651,749,650.8,748,652.8z"/>
	<path class="st5" d="M670.8,659c-10-1-12.1,4.7-12.5,6.6c-1.1,6,4,8.9,8.2,9.9c4.7,1.1,11.3-0.3,12.5-5.3
		C680.6,663.7,675.7,659.5,670.8,659z"/>
	<path class="st5" d="M810.2,659c-10,1-10.9,7.1-10.8,9.1c0.2,6.1,5.7,7.9,10.1,8c4.8,0.1,11-2.6,11.1-7.7
		C820.7,661.6,815.1,658.5,810.2,659z"/>
	<path class="st11" d="M570.1,625.2c-0.5-2.1-1.8-4.2-3.4-5.7c-1-1-2.4-1.4-3.8-1c-1.8,0.5-2.7,2-2.8,3.7c-0.3,2.8,1.6,6.2,4.3,7.4
		c1.3,0.6,2.6,0.8,3.9,0C569.8,628.7,570.5,626.9,570.1,625.2z"/>
	<path class="st11" d="M554.5,608c-0.4-1.5-1.6-2.6-2.1-3.6c-1-1.9-3.7-1.3-4.4,0.6c-0.7,2.1,0.4,4.3,1.9,5.7
		C551.9,612.5,555.2,610.8,554.5,608z"/>
	<path class="st11" d="M575.2,608.6c0.1-0.7,0-1.4-0.4-2c-1.1-1.9-2.8-3.5-5.1-3.6c-1.5-0.1-2.7,1.3-2.7,2.7c0,1.9,1.2,3.7,2.6,4.9
		c0.6,0.5,1.4,0.9,2.1,0.9c0.1,0,0.2,0.1,0.3,0.1C573.8,612.4,575.4,610.3,575.2,608.6z"/>
	<path class="st11" d="M581.3,625.1c-2.3-1.3-4.9,1.3-3.6,3.6c0.9,1.6,2.4,2.5,4.2,2.6c1,0.1,2-0.9,1.9-1.9
		C583.7,627.5,582.9,626,581.3,625.1z"/>
	<path class="st11" d="M577.7,643.4c-1.3,0.4-2.2,1.5-2.2,2.9c-0.1,2.5,2.3,5,4.9,4.7c1.6-0.2,3.5-1.4,3.3-3.3
		C583.3,644.7,580.7,642.5,577.7,643.4z"/>
	<g>
		<path class="st11" d="M594.4,640.4c0.1,0.5,0,0.3-0.3-0.5c-0.3-0.5-0.6-0.8-1.1-1.1c-0.1-0.1-1.1-0.7-0.7-0.4
			c-1.3-1-2.9-1.2-4.2,0c-1.2,1.2-1.1,3,0,4.2c0.3,0.3,0.6,0.6,0.9,0.8c0.3,0.2,0.6,0.5,0.9,0.7c0,0,1,0.3,1.4,0.4
			C593.6,645,595.8,642.4,594.4,640.4z"/>
		<path class="st11" d="M591.4,644.4C591.4,644.4,591.3,644.4,591.4,644.4C591.5,644.5,591.5,644.5,591.4,644.4z"/>
	</g>
	<path class="st11" d="M607.4,638.7c-0.7-0.8-1.7-1.3-2.7-1.7c-1.3-0.6-2.9-0.4-3.7,1c-0.7,1.2-0.3,3,1,3.7c0.9,0.5,1.8,1.1,2.8,1.4
		c0.9,0.3,2.5,0.1,3-0.8C608.5,641.1,608.2,639.7,607.4,638.7z"/>
	<path class="st11" d="M612,658.3c-0.5-1.5-1.7-2.7-3.3-3.1c-1.6-0.4-3.3,0.5-3.7,2.1c-0.5,1.8,0.7,3.3,2.3,3.7c0,0,0.1,0.1,0.3,0.2
		c0.3,0.2,0.7,0.3,1,0.4C610.6,662.1,612.7,660.4,612,658.3z"/>
	<path class="st11" d="M704.4,707c-1.6-0.1-3.1,1.2-3.5,2.7c-0.5,1.7,0.3,3.2,1.7,4.2c1.6,1.1,3.7,2.1,5.7,2c1.6-0.2,3.7-1.1,3.9-3
		C712.9,707.7,707.9,707.2,704.4,707z"/>
	<path class="st11" d="M690.4,704c-1.3-0.4-2.5-0.3-3.8-0.1c-2.7,0.5-2.7,5,0,5.5c1.4,0.3,2.5,0.3,3.8-0.1
		C693,708.6,693,704.8,690.4,704z"/>
	<path class="st11" d="M703.7,691.8c-0.5-1.1-1.9-1.9-3-2.4c-2.3-1.3-5.5,1.4-3.9,3.9c0.7,1.1,1.5,1.6,2.7,2.1
		c1.2,0.4,2.9,0.1,3.8-0.8C704.1,693.8,704.1,692.7,703.7,691.8z"/>
	<path class="st11" d="M719.9,697.6c0.2,0.4,0.1,0.2-0.4-0.4c-0.4-0.4-0.8-0.6-1.3-0.7c-0.6-0.2-1.2-0.1-1.8-0.1
		c-1.1,0.1-2,0.3-2.9,0.9c-1.5,0.9-1.5,3,0,3.9c1,0.6,1.8,0.8,2.9,0.9c0.6,0,1.2,0.1,1.8,0c0.5-0.1,0.9-0.4,1.3-0.7
		c0.5-0.7,0.6-0.8,0.4-0.4C720.8,699.9,720.8,698.6,719.9,697.6z"/>
	<g>
		<path class="st11" d="M735.6,693.2c0.3,0.6,0.2,0.4-0.2-0.6c-0.3-0.6-0.8-1-1.4-1.4c-0.6-0.3-1.2-0.6-1.9-0.7
			c-1.5-0.2-3-0.3-4.3,0.6c-2.2,1.6-2.2,4.3,0,5.9c0.7,0.5,1.5,0.6,2.3,0.8c-1.1-0.3,0.8,0.3,1,0.4c0.3,0,0.6,0.1,1,0.1
			c1.2-0.2,1.4-0.2,0.6,0c1.2,0.2,2.4-0.8,3-1.7C736.3,695.6,736.1,694.4,735.6,693.2z"/>
		<path class="st11" d="M731.1,698.3C731,698.3,731,698.3,731.1,698.3C731.1,698.3,731.1,698.3,731.1,698.3z"/>
	</g>
	<path class="st11" d="M737.2,711.2c-0.7-1-1.5-1.8-2.7-2.1c-0.9-0.2-2-0.2-2.9-0.3c-0.7-0.1-1.7,0.2-2.3,0.3
		c-1,0.1-1.7,0.7-2.4,1.3c-1.2,1-1.1,3.1,0,4.1c0.7,0.6,1.2,1,2.1,1.4c0.2,0.1,0.4,0.2,0.6,0.2c-1.1-0.5,1.7,0.5,0.9,0.4
		c2.1,0.4,4.5,0.8,6.1-1.1C737.6,714.3,738.2,712.5,737.2,711.2z"/>
	<path class="st11" d="M746.5,701.4c-0.7-0.2-1.4-0.3-2.1-0.4c-0.8-0.1-1.8,0.3-2.5,0.5c-2.8,0.8-2.8,4.9,0,5.7
		c0.5,0.1,1.1,0.3,1.6,0.4c1,0.2,2,0,3-0.3C749.5,706.6,749.5,702.2,746.5,701.4z"/>
	<path class="st11" d="M765.7,703.2c-1.2-1.5-3-1.5-4.8-1.5c-4.2-0.1-4.2,6.6,0,6.6c1.7,0,3.6-0.1,4.8-1.5
		C766.6,705.6,766.6,704.3,765.7,703.2z"/>
	<path class="st11" d="M885.7,641.8c-0.6-0.6-1.3-0.5-2-0.3c-1.9-0.2-3.7,1.7-5.3,2.5c-2.7,1.2-0.7,5.3,2,4.6c1.1-0.3,2.1-0.7,3-1.4
		c1.1-0.7,2.7-1.8,2.6-3.3c0,0.3,0.2-0.5,0.2-0.6C886.3,642.8,886.1,642.2,885.7,641.8z"/>
	<path class="st11" d="M888.4,624.3c-2.8-0.3-5.3,2.7-5.3,5.4c0,1.1,0.6,2.2,1.6,2.8c1,0.6,2.1,0.5,3,0c-0.2,0.1-0.1,0.1,0.8-0.4
		c0.5-0.2,1.1-0.5,1.4-0.9c0.2-0.3,0.5-0.6,0.8-0.9c0.7-0.8,0.9-1.6,1.1-2.7C892,625.7,890,624.4,888.4,624.3z"/>
	<path class="st11" d="M900.4,639c-0.7-1.2-2.5-1.8-3.7-1c-0.9,0.7-2,1.3-2.5,2.4c-0.7,1.5-0.6,3.2,0.6,4.4c0.9,0.8,2,0.7,2.9,0
		c1-0.8,1.5-1.6,2.3-2.5C900.8,641.3,901,640.1,900.4,639z"/>
	<path class="st11" d="M904.5,616.6c-1.1,0.1-2.2,0.5-3,1.3c-0.5,0.5-1,1-1.5,1.4c-1,0.7-1.6,1.8-1.2,3.1c0.4,1.3,2,2.5,3.3,1.9
		c2.4-1,4.5-2.4,4.8-5.2C907.1,617.9,905.7,616.5,904.5,616.6z"/>
	<path class="st11" d="M877.8,579.5c-1-0.6-2.2-0.9-3.3-0.5c-1.4,0.4-3.1,1.6-4,2.7c-1.3,1.6-1.1,4.6,1.3,5.1c0,0,0,0-0.1-0.1
		c0.1,0,0.2,0.1,0.4,0.1c1.1,0.2,2,0.1,3.1-0.2c2-0.6,4.2-2.1,4-4.5C879.1,581.1,878.8,580.1,877.8,579.5z"/>
	<path class="st11" d="M868.8,602.8c-2.6-0.8-4.9,1.4-6.1,3.5c-1.6,2.8,1.5,5.8,4.3,4.3c1.5-0.9,3.6-2.1,3.9-4
		C871.2,604.9,870.5,603.3,868.8,602.8z"/>
	<path class="st11" d="M883,591.9c-2.5-0.5-4.5,0.4-5.9,2.5c-0.7,1.1-0.5,2.7,0.5,3.6c1,1,2.4,1.1,3.6,0.5c-0.6,0.3,0.6-0.2,0.8-0.2
		c0.6-0.2,1.1-0.5,1.7-0.9C885.9,596.2,885.5,592.4,883,591.9z"/>
	<path class="st11" d="M865.7,592.2c-1.9-1.3-4.1-0.3-5.6,1c-1.4,1.2-2,2.8-1.7,4.6c0.2,1.3,2,2.3,3.2,1.8c0.4-0.1,0.8-0.2,1.1-0.4
		c0.1-0.1,1-0.6,0.6-0.4c1.4-0.6,2.6-0.8,3.5-2.3C867.7,594.9,867.1,593.1,865.7,592.2z"/>
	<path class="st11" d="M846.9,613.9c-0.2-0.2-0.4-0.5-0.6-0.7c-0.8-0.9-2.4-1.3-3.5-0.9c-1.2,0.4-2.2,0.9-3.2,1.8
		c-0.9,0.8-1.4,1.9-1.4,3.2c0,1.8,1.4,2.9,3.1,3.1c-2-0.2,0.9,0.1,0.5,0.1c0.6,0,1.1-0.2,1.7-0.3c1.2-0.3,2.1-0.9,2.8-1.8
		C847.3,617.1,847.9,615.3,846.9,613.9z"/>
	<path class="st11" d="M844,600.9c-0.1-0.2-0.2-0.3-0.3-0.4c-0.5-0.5-1.4-0.8-2.1-0.6c-1.1,0.4-1.9,0.9-2.9,1.6
		c-1.9,1.3-0.8,4.8,1.6,3.9c1.3-0.5,2.4-0.9,3.3-1.9C844.3,602.8,844.4,601.8,844,600.9z"/>
	<path class="st11" d="M855.5,583.2c-1.8-0.4-3.6,0-5.1,0.6c-2.4,0.9-2.4,4,0,4.9c2,0.7,4.8,0.8,6.2-1
		C857.9,586.2,857.7,583.7,855.5,583.2z"/>
	<path class="st11" d="M893.7,580.8c-2.4-0.4-4.1,0.6-6,1.9c-1.3,0.9-1.4,2.8,0,3.7c2.2,1.4,5.5,1.2,7.2-0.8
		C896.2,584,896,581.2,893.7,580.8z"/>
	<path class="st11" d="M908.3,579.2c-0.8-1.3-2.2-1.5-3.5-0.9c-0.8,0.3-1.3,0.8-1.9,1.5c-2.2,2.6,1.2,6,3.7,3.7
		c0.5-0.4,0.9-0.8,1.2-1.2C908.7,581.4,908.9,580.3,908.3,579.2z"/>
	<path class="st11" d="M830.3,596.1c-0.8-0.2-1.7-0.2-2.5,0c-0.6,0.2-1.2,0.5-1.8,0.7c-1.1,0.3-1.9,1.4-1.9,2.5
		c0,1.6,1.2,2.4,2.6,2.6c2.3,0.3,4.4-0.7,5.3-2.9C832.4,597.8,831.4,596.5,830.3,596.1z"/>
	<g class="st16">
		<path class="st17" d="M599.1,573.7c-5.7-8.2-20.3-15.6-30.1-11.4c-3.2,1.4-4,7-1.2,9.2c3.6,2.8,8.2,4.4,12.3,6.5
			c4.6,2.4,8.8,4.7,14.1,4.2C598.1,581.9,601.8,577.6,599.1,573.7z"/>
		<path class="st17" d="M659.2,596.2c-5.6-6.6-16-9-23.7-12.4c-7-3.1-15.7-8.6-23.5-6.2c-3.4,1.1-4.7,4.1-4.2,7.4
			c1.4,8.5,11.4,11.7,18.1,15.1c9.3,4.7,19.1,10.9,29.7,9.3C662.1,608.5,662.6,600.2,659.2,596.2z"/>
		<path class="st17" d="M868.1,586.3c-2.7-9.7-19.3-5.8-25.9-5.2c-12.2,1.2-25.9,4.6-35.7,12.1c-4.7,3.6-4.3,14.2,3.6,13.2
			c13.4-1.8,25.9-7,39.5-8.3C855.2,597.5,870.7,595.8,868.1,586.3z"/>
		<path class="st17" d="M889.9,574.2c-3.6-0.6-6.4,0.4-9.7,2c-3.5,1.7-6.4,5.9-3.2,9.4c2.1,2.3,5,2,7.8,1.5c2.2-0.4,4.6-0.8,6.5-2.1
			c1.7-1.2,2.9-2.8,2.9-5.1C894.2,577.4,892.4,574.6,889.9,574.2z"/>
		<path class="st17" d="M624,683c0.1-1.1-0.1-2.2-0.7-3.1c-2.6-3.6-12.8-12.5-15.9-5.1c-1.1,2.6,0.7,5.6,2.4,7.5
			c1.8,1.9,3.5,3.9,5.9,5.1c1.2,0.6,2.9,1,4.3,0.6c1.2,0,2.3-0.2,3.2-1.1C624.2,686,624.3,684.4,624,683z"/>
		<path class="st17" d="M815.7,692.4c-0.6-0.2-3.2-0.4-1.6-0.1c-1.1-0.3-2.2-0.3-3.3,0c-0.5,0.2-1,0.4-1.5,0.6
			c0.9-0.4,0.6-0.3-1,0.4c-0.2,0.1-2.2,1.1-1.1,0.6c-1.4,0.6-2.6,1.1-3.8,2.1c-2.7,2.2-1.8,6.9,1.1,8.4c2.6,1.4,5.3,1,8.1,0.4
			c1.5-0.3,3.3-1.2,4.3-2.2c0.3-0.3,0.5-0.7,0.8-1c0.1-0.1,0.1-0.1,0.2-0.2c0.8-0.8,1.2-1.7,1.5-2.7
			C820.2,696,818.2,693.3,815.7,692.4z"/>
		<path class="st17" d="M866.4,672.7c0-0.1,0-0.3,0-0.4c0-0.4-0.1-0.7-0.1-1.1c0,0,0,0,0,0v0c-0.4-1.8-1.5-3.3-3.4-3.9
			c-1.8-0.8-4.2-0.8-5.8,0.3c-1.3,0.9-2.5,1.9-3.7,3c1.6-1.3-1.8,1.7-1.2,0.9c-0.4,0.4-0.8,0.9-1.3,1.2c-1.4,1.1-1.8,3.3-1.3,5
			c0.7,2.4,2.6,3.5,4.9,3.8c3.2,0.3,6.3-1.1,8.9-2.9c2.1-1.4,3.1-3.3,3-5.6C866.4,672.8,866.4,672.8,866.4,672.7z"/>
		<path class="st17" d="M781.2,602.3c-1.5-0.7-1.7-1.5-3.4-2c-1.9-0.5-4-0.5-5.9-0.3c-3.9,0.4-7.6,0.6-11.2,2.2
			c-4.3,1.9-4.3,9.5,0,11.3c3.6,1.5,7.3,2,11.2,1.9c2-0.1,4-0.3,5.9-1c2.3-0.8,2.9-2,4.5-3.6C784.7,608.6,784.3,603.8,781.2,602.3z"
			/>
	</g>
</g>
</svg>
