<svg width="122" height="67" viewBox="0 0 122 67" fill="none" xmlns="http://www.w3.org/2000/svg">
<path fill-rule="evenodd" clip-rule="evenodd" d="M61.0044 2.30809e-07C35.9139 0.00122172 12.7614 12.2003 0.460941 31.8968C0.158976 32.3803 0.000237782 32.9256 2.66933e-07 33.4803C-0.000237248 34.035 0.158033 34.5804 0.459584 35.0641C12.7478 54.7765 35.9044 66.9902 61.0031 67C61.0017 67 61.0044 67 61.0031 67C86.0935 66.9914 109.247 54.7851 121.54 35.0837C121.841 34.6001 122 34.0547 122 33.5C122 32.9453 121.841 32.3999 121.54 31.9163C109.247 12.2149 86.0949 0.00977216 61.0044 2.30809e-07C61.0053 -7.69364e-08 61.0035 -7.69364e-08 61.0044 2.30809e-07ZM61.0031 6.46413C82.8347 6.47146 103 16.7576 114.256 33.5006C103 50.2424 82.836 60.5273 61.0071 60.5359C39.1687 60.5285 18.9984 50.235 7.74357 33.4823C19.0066 16.7454 39.1742 6.46535 61.0031 6.46413ZM61.0003 13.9067C49.0281 13.9067 39.246 22.7173 39.246 33.5006C39.246 44.2827 49.0281 53.0933 61.0003 53.0933C72.9713 53.0933 82.7533 44.2827 82.7533 33.5006C82.7533 22.7173 72.9713 13.9067 61.0003 13.9067ZM61.0003 20.3708C69.0926 20.3708 75.5765 26.2108 75.5765 33.5006C75.5765 40.7892 69.0926 46.6292 61.0003 46.6292C52.9067 46.6292 46.4229 40.7892 46.4229 33.5006C46.4229 26.2108 52.9067 20.3708 61.0003 20.3708Z" fill="#7B7CBE"/>
</svg>
