<?xml version="1.0" encoding="UTF-8"?>
<svg xmlns="http://www.w3.org/2000/svg" xmlns:xlink="http://www.w3.org/1999/xlink" width="4001" height="4001" viewBox="0 0 4001 4001">
<path fill-rule="evenodd" fill="rgb(100%, 100%, 100%)" fill-opacity="1" d="M 0.175781 0.460938 L 4000.171875 0.460938 L 4000.171875 4000.457031 L 0.175781 4000.457031 L 0.175781 0.460938 "/>
<path fill-rule="evenodd" fill="rgb(92.576599%, 93.75%, 65.039062%)" fill-opacity="1" d="M 0.175781 0.460938 L 4000.171875 0.460938 L 4000.171875 4000.457031 L 0.175781 4000.457031 L 0.175781 0.460938 "/>
<path fill-rule="evenodd" fill="rgb(26.268005%, 16.868591%, 8.250427%)" fill-opacity="1" d="M 2452.769531 1285.570312 L 2495.21875 1283.699219 C 2503.75 1170.46875 2508.351562 1028.25 2385.78125 971.609375 L 2303.121094 1029 C 2422.488281 1120.769531 2444.320312 1127.21875 2452.769531 1285.570312 "/>
<path fill-rule="evenodd" fill="rgb(60.742188%, 66.209412%, 28.24707%)" fill-opacity="1" d="M 2192.550781 1334.789062 C 2090.058594 1450.050781 2083.121094 1553.980469 2046.359375 1723.851562 C 2009.160156 1895.800781 1955.128906 1955.230469 1860.519531 2048.300781 C 1693.03125 2213.511719 1552.601562 2778.21875 2112.890625 2973.378906 C 2220.96875 3011.027344 2345.460938 3029.789062 2468.808594 3029.304688 C 2592.160156 3029.789062 2716.648438 3011.027344 2824.730469 2973.378906 C 3385.019531 2778.21875 3244.589844 2213.511719 3077.109375 2048.300781 C 2982.5 1955.230469 2928.460938 1895.800781 2891.261719 1723.851562 C 2854.5 1553.980469 2847.558594 1450.050781 2745.070312 1334.789062 C 2651.820312 1241.410156 2556.171875 1232.75 2468.808594 1244.78125 C 2381.449219 1232.75 2285.808594 1241.410156 2192.550781 1334.789062 "/>
<path fill-rule="evenodd" fill="rgb(96.875%, 95.3125%, 80.859375%)" fill-opacity="1" d="M 2468.808594 1288.480469 L 2462.910156 1287.660156 C 2366.820312 1274.429688 2293.738281 1295.171875 2224.058594 1364.5 C 2191.820312 1400.941406 2167.28125 1439.339844 2149.199219 1484.609375 C 2135.148438 1519.800781 2125.730469 1556.75 2117.558594 1593.691406 C 2107.328125 1639.980469 2098.699219 1686.648438 2088.671875 1733.011719 C 2069.699219 1820.691406 2042.96875 1899.390625 1988.820312 1971.859375 C 1959.789062 2010.710938 1925.371094 2045.171875 1890.898438 2079.140625 C 1846.058594 2123.320312 1812.03125 2190.71875 1791.289062 2249.480469 C 1763.671875 2327.710938 1750.691406 2413.480469 1756.921875 2496.339844 C 1773.789062 2720.671875 1921.789062 2860.980469 2127.128906 2932.5 C 2235.078125 2970.109375 2354.710938 2986.011719 2468.808594 2986.011719 C 2582.921875 2986.011719 2702.539062 2970.109375 2810.488281 2932.5 C 3015.828125 2860.980469 3163.828125 2720.671875 3180.699219 2496.339844 C 3186.929688 2413.480469 3173.960938 2327.710938 3146.339844 2249.480469 C 3125.601562 2190.71875 3091.558594 2123.320312 3046.71875 2079.140625 C 3012.25 2045.171875 2977.828125 2010.710938 2948.800781 1971.859375 C 2894.648438 1899.390625 2867.921875 1820.691406 2848.949219 1733.011719 C 2838.921875 1686.648438 2830.300781 1639.980469 2820.058594 1593.691406 C 2811.890625 1556.75 2802.46875 1519.800781 2788.421875 1484.609375 C 2770.351562 1439.339844 2745.800781 1400.941406 2713.558594 1364.5 C 2643.878906 1295.171875 2570.800781 1274.429688 2474.71875 1287.660156 L 2468.808594 1288.480469 "/>
<path fill-rule="evenodd" fill="rgb(96.484375%, 92.576599%, 59.568787%)" fill-opacity="1" d="M 2451.800781 1990.761719 C 2441.109375 2151.101562 2260.980469 2332.101562 2260.601562 2502.328125 C 2260.398438 2588.421875 2293.398438 2651.351562 2350.390625 2702.558594 C 2420.289062 2765.371094 2456.640625 2784.449219 2445.960938 2890.371094 C 2446.820312 2889.871094 2490.550781 2889.71875 2491.660156 2890.371094 C 2480.988281 2784.449219 2517.328125 2765.371094 2587.230469 2702.558594 C 2644.21875 2651.351562 2677.21875 2588.421875 2677.03125 2502.328125 C 2676.640625 2332.101562 2496.519531 2151.101562 2485.820312 1990.761719 C 2476.140625 1753.449219 2551.980469 1526.800781 2468.808594 1474.039062 C 2385.640625 1526.800781 2461.488281 1753.449219 2451.800781 1990.761719 "/>
<path fill-rule="evenodd" fill="rgb(26.268005%, 16.868591%, 8.250427%)" fill-opacity="1" d="M 2441.980469 2562.308594 L 2421.761719 2364.761719 C 2351.230469 2368.679688 2275.761719 2549.011719 2353.429688 2586.890625 C 2388.640625 2604.070312 2419.089844 2589.949219 2441.980469 2562.308594 "/>
<path fill-rule="evenodd" fill="rgb(26.268005%, 16.868591%, 8.250427%)" fill-opacity="1" d="M 2495.640625 2562.308594 L 2515.859375 2364.761719 C 2586.390625 2368.679688 2661.859375 2549.011719 2584.199219 2586.890625 C 2548.980469 2604.070312 2518.53125 2589.949219 2495.640625 2562.308594 "/>
<path fill-rule="evenodd" fill="rgb(26.268005%, 16.868591%, 8.250427%)" fill-opacity="1" d="M 1515.5 1285.570312 L 1557.949219 1283.699219 C 1566.480469 1170.46875 1571.078125 1028.25 1448.511719 971.609375 L 1365.839844 1029 C 1485.21875 1120.769531 1507.039062 1127.21875 1515.5 1285.570312 "/>
<path fill-rule="evenodd" fill="rgb(60.742188%, 66.209412%, 28.24707%)" fill-opacity="1" d="M 1255.269531 1334.789062 C 1152.789062 1450.050781 1145.851562 1553.980469 1109.089844 1723.851562 C 1071.878906 1895.800781 1017.851562 1955.230469 923.242188 2048.300781 C 755.757812 2213.511719 615.328125 2778.21875 1175.621094 2973.378906 C 1283.699219 3011.027344 1408.191406 3029.789062 1531.539062 3029.304688 C 1654.890625 3029.789062 1779.378906 3011.027344 1887.460938 2973.378906 C 2447.75 2778.21875 2307.320312 2213.511719 2139.828125 2048.300781 C 2045.21875 1955.230469 1991.191406 1895.800781 1953.988281 1723.851562 C 1917.230469 1553.980469 1910.289062 1450.050781 1807.800781 1334.789062 C 1714.539062 1241.410156 1618.898438 1232.75 1531.539062 1244.78125 C 1444.171875 1232.75 1348.53125 1241.410156 1255.269531 1334.789062 "/>
</svg>
